<svg width="913" height="861" viewBox="0 0 913 861" fill="none" xmlns="http://www.w3.org/2000/svg">
<g clip-path="url(#clip0_973_10734)">
<g clip-path="url(#clip1_973_10734)">
<path d="M702.646 611.939L302.396 1305.19C248.705 1272.56 234.621 1240.51 230.83 1165.15L197.573 207.751C192.845 64.5159 214.407 18.63 308.573 15.4937L565 5.34817C636.797 9.51258 670.496 26.3391 682.068 163.581L702.646 611.939Z" fill="white" stroke="#232242" stroke-width="6"/>
<path d="M92.8579 776.006C92.8579 776.006 135.367 758.459 154.545 801.174C173.722 843.888 177.209 835.171 215.565 815.122C235.765 804.562 245.811 814.31 253.851 824.063C261.077 832.824 266.683 841.59 276.586 835.606C297.511 822.963 302.303 791.582 338.915 791.582C375.527 791.582 374.655 856.966 412.14 835.606C449.624 814.247 468.366 795.072 495.825 823.839C523.285 852.605 528.513 859.576 565.125 854.35C601.742 849.119 605.226 869.604 605.226 869.604H0.0214844L92.8579 776.006Z" fill="#CE4824"/>
<path d="M210.254 607.641C146.911 608.902 213.273 684.988 187.613 684.587C169.507 678.549 154.419 694.644 165.986 716.272C177.554 737.896 158.443 729.849 151.905 751.477C145.367 773.101 158.967 839.746 210.254 837.854V607.641Z" fill="#FF9C31"/>
<path d="M210.254 837.853V607.64C277.064 606.941 225.555 673.728 241.423 671.508C253.489 669.978 269.085 684.586 262.044 701.184C255.003 717.777 231.869 756.502 248.465 752.478C310.269 751.134 256.425 846.472 210.254 837.853Z" fill="#CE4824"/>
<mask id="mask0_973_10734" style="mask-type:luminance" maskUnits="userSpaceOnUse" x="179" y="674" width="76" height="192">
<path d="M253.598 770.821C252.676 769.907 251.179 769.907 250.264 770.821C241.282 779.807 221.353 799.744 212.616 808.471C212.616 782.53 212.616 747.487 212.616 721.546L240.483 693.68C241.405 692.765 241.405 691.265 240.483 690.345C239.568 689.431 238.065 689.431 237.15 690.345L212.616 714.883V676.969C212.614 675.674 211.551 674.608 210.254 674.608C208.963 674.608 207.9 675.674 207.9 676.969V719.596C207.901 722.695 207.898 729.07 207.9 732.16C203.637 727.882 188.011 712.282 183.479 707.74C181.35 705.55 177.955 708.938 180.146 711.079C186.675 717.596 201.567 732.512 207.9 738.824V776.693L183.479 752.273C181.348 750.093 177.957 753.471 180.146 755.607L207.9 783.361C207.898 804.046 207.9 842.361 207.9 863.305C207.9 864.595 208.963 865.656 210.254 865.656C211.552 865.656 212.616 864.595 212.616 863.305V815.134C222.287 805.464 243.763 783.987 253.598 774.156C254.513 773.241 254.513 771.736 253.598 770.821Z" fill="white"/>
</mask>
<g mask="url(#mask0_973_10734)">
<path d="M253.598 770.821C252.676 769.907 251.179 769.907 250.264 770.821C241.282 779.807 221.353 799.744 212.616 808.471C212.616 782.53 212.616 747.487 212.616 721.546L240.483 693.68C241.405 692.765 241.405 691.265 240.483 690.345C239.568 689.431 238.065 689.431 237.15 690.345L212.616 714.883V676.969C212.614 675.674 211.551 674.608 210.254 674.608C208.963 674.608 207.9 675.674 207.9 676.969V719.596C207.901 722.695 207.898 729.07 207.9 732.16C203.637 727.882 188.011 712.282 183.479 707.74C181.35 705.55 177.955 708.938 180.146 711.079C186.675 717.596 201.567 732.512 207.9 738.824V776.693L183.479 752.273C181.348 750.093 177.957 753.471 180.146 755.607L207.9 783.361C207.898 804.046 207.9 842.361 207.9 863.305C207.9 864.595 208.963 865.656 210.254 865.656C211.552 865.656 212.616 864.595 212.616 863.305V815.134C222.287 805.464 243.763 783.987 253.598 774.156C254.513 773.241 254.513 771.736 253.598 770.821Z" fill="url(#paint0_radial_973_10734)"/>
</g>
<path d="M294.557 545.463C217.197 547.005 298.248 639.929 266.908 639.44C244.794 632.067 226.368 651.721 240.495 678.135C254.622 704.545 231.282 694.718 223.297 721.128C215.312 747.538 231.922 828.933 294.557 826.626V545.463Z" fill="#232242"/>
<path d="M294.557 826.624V545.461C376.157 544.606 313.247 626.174 332.626 623.466C347.362 621.598 366.409 639.438 357.809 659.707C349.21 679.977 320.957 727.267 341.226 722.353C416.706 720.711 350.945 837.15 294.557 826.624Z" fill="#3A345B"/>
<path d="M347.49 744.754C346.365 743.64 344.537 743.64 343.422 744.754C332.451 755.73 308.109 780.077 297.442 790.734C297.442 759.059 297.442 716.257 297.442 684.577L331.473 650.545C332.603 649.426 332.603 647.592 331.473 646.473C330.359 645.353 328.521 645.353 327.401 646.473L297.442 676.437V630.134C297.437 628.55 296.141 627.255 294.557 627.25C292.978 627.25 291.678 628.55 291.678 630.134V682.196C291.683 685.98 291.678 693.763 291.678 697.537C289.786 695.641 285.919 691.773 284.012 689.872L261.856 667.715C260.744 666.591 258.896 666.591 257.785 667.715C256.667 668.84 256.667 670.668 257.785 671.793L279.935 693.944C282.506 696.53 289.033 703.028 291.678 705.677V751.926L261.856 722.104C259.253 719.44 255.111 723.566 257.785 726.177L291.678 760.071C291.678 785.337 291.683 832.129 291.678 857.702C291.678 859.282 292.978 860.577 294.557 860.577C296.141 860.577 297.442 859.282 297.442 857.702V798.879C309.253 787.068 335.478 760.839 347.49 748.827C348.609 747.707 348.609 745.874 347.49 744.754Z" fill="#434066"/>
<path d="M325.602 871.867H263.912V849.74H325.602V871.867Z" fill="#232242"/>
<path d="M226.945 871.867H193.572V859.899H226.945V871.867Z" fill="#FF9C31"/>
<path d="M817.404 869.94H520.625C520.625 869.94 459.966 842.499 464.302 813.615C466.375 799.794 491.262 811.767 515.554 823.74C542.019 836.789 567.773 849.837 562.502 829.504C552.395 790.51 556.01 709.633 614.494 719.743C672.985 729.854 683.092 832.389 720.644 804.952C758.196 777.511 776.968 747.185 811.622 771.732C846.283 796.284 821.736 861.272 857.84 839.61C893.943 817.947 912.722 869.94 912.722 869.94H817.404Z" fill="#FF9C31"/>
<path d="M544.327 870.425H366.233C340.253 870.425 319 849.168 319 823.188V386.314C319 360.334 340.253 339.081 366.233 339.081H544.327C570.307 339.081 591.565 360.334 591.565 386.314V823.188C591.565 849.168 570.307 870.425 544.327 870.425Z" fill="white"/>
<path d="M547.817 859.673H362.743C344.37 859.673 329.332 844.64 329.332 826.262V381.915C329.332 363.543 344.37 348.51 362.743 348.51H547.817C566.189 348.51 581.227 363.543 581.227 381.915V826.262C581.227 844.64 566.189 859.673 547.817 859.673Z" fill="#CE4824"/>
<path d="M319.374 470.202H315.805V410.468H319.374V470.202Z" fill="white"/>
<path d="M319.374 527.865H315.805V486.011H319.374V527.865Z" fill="white"/>
<path d="M594.833 527.955H591.26V486.101H594.833V527.955Z" fill="white"/>
<path d="M627.56 554.782C627.56 554.782 619.424 598.558 632.183 622.836C644.942 647.114 771.96 616.138 771.96 616.138L674.371 557.794L627.56 554.782Z" fill="#18182D"/>
<path d="M671.654 857.428C671.654 857.428 678.283 860.147 678.283 871.792H671.479L668.563 868.297L665.647 871.792H623.363C623.363 871.792 623.363 865.578 637.938 864.414C652.524 863.251 652.737 857.428 652.737 857.428H671.654Z" fill="#D14D3F"/>
<path d="M549.922 551.472C549.922 551.472 585.05 548.497 602.085 537.654C619.126 526.811 620.678 489.991 624.291 481.296C627.904 472.601 645.46 460.232 645.46 460.232L632.033 550.092C632.033 550.092 612.757 578.277 556.822 563.386C556.822 563.386 552.999 563.224 549.922 551.472Z" fill="#38345A"/>
<path d="M555.505 557.794C555.505 557.794 558.419 559.304 556.821 563.387C555.217 567.469 548.622 569.801 548.622 569.801L542.535 557.794H555.505Z" fill="#CE6F84"/>
<path d="M430.435 532.492C430.435 532.492 413.128 559.857 414.937 569.41C416.746 578.963 434.796 593.933 434.796 593.933L447.023 565.279L430.435 532.492Z" fill="#EF634E"/>
<path d="M408.366 836.046C408.366 836.046 402.137 834.946 395.381 844.431L400.152 847.828L404.225 846.44L404.244 850.742L433.9 871.867C433.9 871.867 437.504 866.812 427.951 858.579C418.403 850.346 421.624 845.492 421.624 845.492L408.366 836.046Z" fill="#EF634E"/>
<path d="M439.914 735.526C439.914 735.526 422.857 817.84 404.611 836.471L421.693 850.058C421.693 850.058 437.186 837.469 446.519 817.561C455.852 797.654 439.914 735.526 439.914 735.526Z" fill="#18182D"/>
<path d="M479.535 587.269C479.535 587.269 489.699 711.926 479.535 809.685C474.568 857.43 474.568 857.43 474.568 857.43H450.07C450.07 857.43 431.531 658.691 434.181 607.451C436.826 556.215 479.535 587.269 479.535 587.269Z" fill="#2A2849"/>
<path d="M433.922 626.322L433.946 624.357C433.956 625.002 433.961 625.652 433.971 626.317C433.956 626.317 433.937 626.317 433.922 626.322Z" fill="#9E371C"/>
<path d="M433.97 626.316C433.96 625.652 433.955 625.001 433.945 624.356L434.043 617.497C435.896 617.072 437.856 616.573 439.934 615.991C454.161 612.007 463.469 601.632 468.686 587.269H469.849C465.977 602.767 456.488 625.427 433.97 626.316Z" fill="#201F38"/>
<path d="M445.756 469.653C445.756 469.653 428.293 473.923 424.411 484.791C420.53 495.66 432.175 568.638 432.175 568.638L430.234 587.27H479.915C479.915 587.27 484.364 499.22 469.14 473.374L445.756 469.653Z" fill="white"/>
<path d="M469.137 473.37C469.416 475.932 469.993 478.606 470.985 481.3L445.754 469.651L461.154 427.725L466.747 439.932L472.54 452.575C472.54 452.575 467.871 461.908 469.137 473.37Z" fill="#CE6F84"/>
<path d="M469.136 473.375C452.25 449.706 460.126 437.733 460.126 437.733L466.75 439.933L472.543 452.576C472.543 452.576 468.921 459.817 468.921 469.377C468.926 470.669 468.989 472.005 469.141 473.371L469.136 473.375Z" fill="#9E5565"/>
<path d="M480.111 434.14L477.608 454.52C477.608 454.52 459.734 455.95 459.734 444.866C459.734 433.783 462.951 420.196 466.168 419.84C469.385 419.483 480.111 413.406 480.111 434.14Z" fill="#DF7A8C"/>
<path d="M535.034 555.052C535.034 555.052 543.184 552.72 547.452 556.215C551.725 559.706 556.77 566.692 555.216 567.469C553.666 568.247 553.666 567.469 553.666 567.469C553.666 567.469 554.443 568.638 553.275 569.024C552.111 569.41 550.561 568.638 550.561 568.638C550.561 568.638 551.725 569.801 550.561 570.188C549.393 570.579 548.62 569.801 548.62 569.801C548.62 569.801 549.007 571.742 548.229 571.351C547.452 570.965 543.961 566.692 543.961 566.692L532.688 566.443L535.034 555.052Z" fill="#DF7A8C"/>
<path d="M445.756 469.653C445.756 469.653 467.497 490.613 472.543 531.759C477.588 572.905 469.047 607.841 439.934 615.991C410.825 624.141 404.611 615.991 404.611 615.991L432.175 568.637C432.175 568.637 419.752 526.324 419.752 525.937C419.752 525.548 421.18 489.211 421.18 489.211C421.18 489.211 422.47 473.534 445.756 469.653Z" fill="#FF9C31"/>
<path d="M448.593 577.487C442.267 577.487 435.559 576.353 429.658 572.955L432.176 568.638L429.658 557.795L445.757 490.615C445.757 490.615 458.253 536.432 452.069 557.795L472.363 572.955C472.363 572.955 461.245 577.487 448.593 577.487Z" fill="#C47826"/>
<path d="M423.634 484.792C423.634 484.792 406.166 510.411 418.197 548.839C430.234 587.27 532.319 568.247 532.319 568.247L535.037 555.052C535.037 555.052 448.865 560.484 445.756 528.655C442.651 496.825 446.533 501.871 445.756 490.614C444.983 479.358 428.293 474.7 423.634 484.792Z" fill="#FF9C31"/>
<path d="M452.003 857.429C452.003 857.429 445.369 860.148 445.369 871.793H452.174L455.093 868.297L458.007 871.793H500.296C500.296 871.793 500.296 865.579 485.712 864.416C471.129 863.252 470.914 857.429 470.914 857.429H452.003Z" fill="#EF634E"/>
<path d="M456.576 440.197C456.576 440.197 458.614 437.826 462.667 431.031C466.72 424.24 467.106 423.071 467.106 423.071C467.106 423.071 481.47 429.671 484.188 427.731C486.906 425.79 487.679 421.131 478.752 418.803C469.825 416.476 463.225 418.803 463.225 418.803C463.225 418.803 458.957 417.254 455.075 423.463C451.193 429.671 456.576 440.197 456.576 440.197Z" fill="#38345A"/>
<path d="M460.613 434.046L461.562 429.656C461.562 429.656 460.354 428.194 458.374 430.003C456.394 431.807 460.125 437.732 460.125 437.732L460.613 434.046Z" fill="#DF7A8C"/>
<path d="M555.509 557.794C555.509 557.794 549.129 547.282 544.103 550.822C539.077 554.362 535.039 555.051 535.039 555.051C535.039 555.051 537.337 559.735 545.276 554.289C545.276 554.289 554.712 565.191 555.509 557.794Z" fill="#ED8CA1"/>
<path d="M535.035 566.497C535.07 566.433 538.751 559.672 540.643 560.366C542.535 561.065 537.837 567.773 537.837 567.773C537.837 567.773 533.901 568.448 535.035 566.497Z" fill="#ED8CA1"/>
<path d="M541.096 562.845C541.096 562.845 543.252 560.498 544.102 562.845C544.948 565.192 541.096 568.98 541.096 568.98L537.84 567.773L541.096 562.845Z" fill="#ED8CA1"/>
<path d="M544.1 564.423C544.1 564.423 546.838 562.321 547.356 564.101C547.87 565.88 544.218 570.182 544.218 570.182C544.218 570.182 540.683 571.732 541.094 568.98L544.1 564.423Z" fill="#ED8CA1"/>
<path d="M544.216 570.182C544.216 570.182 543.678 572.514 546.147 571.16C548.62 569.801 549.075 565.391 549.075 565.391C549.075 565.391 547.608 564.345 546.621 566.746C545.633 569.151 544.216 570.182 544.216 570.182Z" fill="#ED8CA1"/>
<path d="M634.612 472.575C634.612 472.575 627.042 478.99 626.869 520.076C626.685 561.164 630.738 604.754 630.738 604.754H694.005L685.732 567.007C685.732 567.007 698.119 503.037 686.764 472.575C686.764 472.575 681.6 460.288 674.371 460.236L652.683 468.445L645.454 460.236C645.454 460.236 638.743 463.037 634.612 472.575Z" fill="#EFEFEF"/>
<path d="M691.529 593.453C656.21 572.846 667.842 498.769 667.842 498.769L685.738 567.004L691.529 593.453Z" fill="#B8B8B8"/>
<path d="M674.367 460.234C674.367 460.234 657.848 521.134 674.367 557.795C690.893 594.452 721.867 620.783 771.956 616.138C771.956 616.138 710.514 583.779 700.187 568.98C689.861 554.177 702.771 472.599 702.771 472.599C702.771 472.599 679.021 454.581 674.367 460.234Z" fill="#38345A"/>
<path d="M702.775 472.597C702.775 472.597 754.406 526.296 762.669 499.446C770.926 472.597 766.8 448.846 766.8 448.846H783.835C783.835 448.846 799.325 509.969 783.835 528.459C768.345 546.948 700.194 521.892 695.027 511.185C695.027 511.185 689.866 476.212 702.775 472.597Z" fill="#38345A"/>
<path d="M780.977 436.326C780.977 436.326 777.536 444.071 780.119 448.847H773.924L768.887 436.326C768.887 436.326 768.113 415.673 770.05 414.512C771.987 413.35 772.243 427.161 772.243 427.161L780.977 436.326Z" fill="#CE6F84"/>
<path d="M769.792 448.849C769.792 448.849 760.109 442.822 764.112 433.416C766.445 427.938 767.21 425.614 768.243 426.388C769.276 427.163 767.599 433.359 767.599 433.359C767.599 433.359 777.41 442.524 778.309 448.849H769.792Z" fill="#DF7A8C"/>
<path d="M771.754 432.067C771.99 431.68 771.736 424.967 773.541 425.483C775.346 426 775.522 432.712 774.207 432.97C772.899 433.229 771.754 432.067 771.754 432.067Z" fill="#DF7A8C"/>
<path d="M774.957 434.392C775.194 434.005 774.939 427.293 776.744 427.809C778.555 428.325 778.725 435.037 777.412 435.296C776.1 435.554 774.957 434.392 774.957 434.392Z" fill="#DF7A8C"/>
<path d="M777.668 436.603C777.912 436.215 777.65 429.503 779.46 430.019C781.263 430.535 781.44 437.248 780.124 437.507C778.814 437.764 777.668 436.603 777.668 436.603Z" fill="#DF7A8C"/>
<path d="M670.372 458.325L664.289 428.557L648.133 430.587L649.567 462.274L653.81 472.123L670.372 458.325Z" fill="#CE6F84"/>
<path d="M649.434 459.408L648.922 457.982V448.03L649.434 459.408Z" fill="#A19A99"/>
<path d="M652.686 468.443L649.434 459.413L648.92 448.035V441.794L661.391 432.103L652.686 468.443Z" fill="#9E5565"/>
<path d="M674.371 460.234L673.262 455.328L652.684 468.443L655.272 476.902L674.371 460.234Z" fill="white"/>
<path d="M652.685 468.441L648.919 457.985L643.408 461.416L646.659 473.975L652.685 468.441Z" fill="white"/>
<path d="M640.325 416.325L642.892 444.449C642.892 444.449 661.604 446.043 661.39 432.104C661.175 418.165 658.828 409.284 658.828 409.284C658.828 409.284 638.836 399.943 640.325 416.325Z" fill="#DF7A8C"/>
<path d="M661.391 429.89L666.994 441.795C666.994 441.795 673.255 414.967 668.764 408.456C664.274 401.944 661.391 403.838 661.391 403.838C661.391 403.838 659.892 397.327 651.66 399.575C643.428 401.825 634.984 401.47 634.984 401.47C634.984 401.47 634.876 413.31 642.255 412.245C649.629 411.179 654.011 410.35 654.011 410.35C654.011 410.35 653.267 419.12 661.391 429.89Z" fill="#38345A"/>
<path d="M661.393 429.887L658.834 419.937C658.834 419.937 659.683 417.451 662.038 418.872C664.387 420.293 663.215 428.352 661.393 429.887Z" fill="#DF7A8C"/>
<path d="M630.742 604.752L650.821 857.43H674.373C674.373 857.43 685.843 808.326 674.373 735.525L694.007 604.752H630.742Z" fill="#3A587C"/>
<path d="M630.742 604.753L698.898 857.431H719.491C719.491 857.431 735.58 814.149 694.004 715.012C694.004 715.012 702.275 642.5 694.004 604.753H630.742Z" fill="#53719B"/>
<path d="M718.685 857.43C718.685 857.43 725.32 860.149 725.32 871.794H718.513L715.598 868.298L712.683 871.794H670.391C670.391 871.794 670.391 865.58 684.977 864.416C699.557 863.253 699.776 857.43 699.776 857.43H718.685Z" fill="#EF634E"/>
<path d="M694.008 604.75H664.054C640.036 576.609 641.23 537.9 641.23 537.9C651.017 584.695 694.008 604.75 694.008 604.75Z" fill="#B8B8B8"/>
<path d="M696.97 627.373C682.624 622.157 671.97 614.026 664.047 604.752H694.004L696.97 627.373Z" fill="#405777"/>
<path d="M652.687 468.443L646.66 473.977L648.135 481.299C648.135 481.299 627.918 518.687 650.824 569.802C673.73 620.916 705.095 619.615 705.095 619.615L716.711 614.717L709.744 600.001C709.744 600.001 674.248 592.477 663.527 567.005C652.818 541.529 647.913 519.456 652.687 483.055L655.273 476.902L652.687 468.443Z" fill="#EF634E"/>
<path d="M678.676 823.702C679.404 812.81 679.759 799.551 679.174 784.362C680.055 798.153 679.595 811.91 678.676 823.702Z" fill="#C47826"/>
<path d="M674.37 857.43L654.295 692.087L679.172 784.306C679.172 784.321 679.178 784.34 679.178 784.36C679.763 799.55 679.407 812.809 678.68 823.702C677.154 843.261 674.37 857.43 674.37 857.43Z" fill="#2D445F"/>
<path d="M679.166 784.307L654.289 692.088L679.166 784.302" fill="#405777"/>
<path d="M697.698 514.241L687.843 502.977C687.843 502.977 682.079 527.753 696.972 558.189C696.972 558.189 695.678 528.332 697.698 514.241Z" fill="#18182D"/>
</g>
</g>
<defs>
<radialGradient id="paint0_radial_973_10734" cx="0" cy="0" r="1" gradientUnits="userSpaceOnUse" gradientTransform="translate(399.461 1086.92) scale(786.662 786.662)">
<stop stop-color="#E20081"/>
<stop offset="0.5464" stop-color="#FFB048"/>
<stop offset="1" stop-color="#FFFC9F"/>
</radialGradient>
<clipPath id="clip0_973_10734">
<rect width="913" height="861" fill="white"/>
</clipPath>
<clipPath id="clip1_973_10734">
<rect width="1320" height="1455" fill="white" transform="translate(-185 -479)"/>
</clipPath>
</defs>
</svg>
