<svg width="1280" height="2164" viewBox="0 0 1280 2164" fill="none" xmlns="http://www.w3.org/2000/svg">
<path d="M303.675 520.332C300.109 512.639 298.082 503.843 298.082 494.503C298.082 464.312 319.204 439.823 345.232 439.823C371.242 439.823 392.346 464.312 392.346 494.503C392.346 505.906 389.324 516.476 384.183 525.237C393.089 534.377 398.899 546.613 399.713 560.351C403.134 618.778 408.419 684.806 413.741 733.568C454.954 699.992 510.793 652.48 559.88 609.456C582.686 589.455 617.402 591.736 637.42 614.542C657.421 637.384 655.14 672.082 632.316 692.101C631.81 692.535 580.967 737.097 528.658 781.058C497.67 807.124 472.095 827.977 452.71 843.044C414.899 872.406 398.754 882.178 377.577 882.178C364.201 882.178 331.657 877.191 318.39 831.085C315.765 821.937 313.304 809.991 310.896 794.538C307.276 771.511 303.62 739.83 300.018 700.39C295.511 651.086 292.235 602.451 290.805 579.844C290.552 578.143 290.335 576.116 290.19 573.636C288.018 536.585 274.534 536.061 265.357 528.676L303.675 520.332Z" fill="white"/>
<path d="M596.081 597.373C610.931 597.373 625.745 603.512 636.284 615.555C655.716 637.721 653.489 671.55 631.34 690.964C625.781 695.817 577.066 738.411 527.698 779.919C496.731 805.944 471.196 826.798 451.782 841.865C414.295 870.984 398.304 880.665 377.587 880.665C364.548 880.665 332.838 875.797 319.853 830.679C317.245 821.584 314.8 809.691 312.392 794.305C308.788 771.319 305.13 739.679 301.526 700.272C297.089 651.521 293.866 603.838 292.326 579.752C292.037 577.923 291.837 575.877 291.692 573.559C289.881 542.374 280.066 536.307 271.428 530.965C270.595 530.439 269.798 529.95 269.001 529.443L304.025 521.819C304.46 521.71 304.84 521.421 305.039 521.004C305.239 520.606 305.257 520.117 305.057 519.7C301.508 512.004 299.624 503.293 299.624 494.51C299.624 465.19 320.07 441.339 345.225 441.339C370.379 441.339 390.843 465.19 390.843 494.51C390.843 505.267 388.109 515.625 382.893 524.481C382.549 525.061 382.639 525.821 383.11 526.31C392.093 535.528 397.471 547.644 398.214 560.447C401.709 620.246 407.106 686.636 412.249 733.739C412.321 734.282 412.665 734.753 413.172 734.971C413.68 735.188 414.277 735.097 414.694 734.753C454.517 702.301 510.53 654.744 560.894 610.593C570.999 601.737 583.567 597.373 596.081 597.373ZM377.587 883.691C399.21 883.691 415.545 873.838 453.63 844.252C473.08 829.158 498.65 808.292 529.654 782.224C579.04 740.711 627.773 698.099 633.169 693.391C656.748 672.709 659.084 636.979 638.566 613.563C618.03 590.165 582.299 587.811 558.883 608.329C509.48 651.648 454.589 698.28 414.947 730.642C409.895 683.793 404.661 618.869 401.238 560.284C400.459 547.136 395.081 534.659 386.08 525.024C391.169 515.915 393.868 505.393 393.868 494.51C393.868 463.524 372.045 438.315 345.225 438.315C318.404 438.315 296.6 463.524 296.6 494.51C296.6 503.075 298.302 511.587 301.562 519.248L265.053 527.216C264.473 527.324 264.039 527.777 263.894 528.339C263.767 528.9 263.966 529.498 264.419 529.86C266.139 531.236 268.023 532.395 269.834 533.536C277.857 538.498 286.948 544.112 288.686 573.74C288.813 576.166 289.03 578.285 289.32 580.096C290.841 604.037 294.083 651.756 298.52 700.526C302.124 740.005 305.782 771.719 309.404 794.785C311.83 810.278 314.293 822.292 316.956 831.517C330.502 878.612 363.86 883.691 377.587 883.691Z" fill="#232242"/>
<path d="M967.351 1922.06H1129.23L1086.06 1749.4H924.179L967.351 1922.06Z" fill="white"/>
<path d="M1127.28 1920.55H968.509L926.094 1750.9H1084.88L1127.28 1920.55ZM967.341 1923.58H1129.22C1129.68 1923.58 1130.12 1923.35 1130.4 1922.99C1130.68 1922.63 1130.8 1922.15 1130.68 1921.7L1087.51 1749.03C1087.34 1748.35 1086.74 1747.88 1086.05 1747.88H924.167C923.703 1747.88 923.253 1748.1 922.985 1748.46C922.69 1748.83 922.591 1749.31 922.704 1749.75L965.878 1922.43C966.047 1923.1 966.652 1923.58 967.341 1923.58Z" fill="#232242"/>
<path d="M417.003 1922.06H255.118L298.291 1749.4H460.176L437.055 1841.84L417.003 1922.06Z" fill="white"/>
<path d="M415.813 1920.55H257.04L299.455 1750.9H458.228L415.813 1920.55ZM255.114 1923.58H416.995C417.685 1923.58 418.285 1923.1 418.448 1922.43L461.626 1749.75C461.735 1749.31 461.626 1748.83 461.354 1748.46C461.063 1748.1 460.627 1747.89 460.154 1747.89H298.273C297.583 1747.89 296.983 1748.35 296.82 1749.03L253.642 1921.7C253.533 1922.15 253.623 1922.63 253.914 1922.99C254.205 1923.35 254.641 1923.58 255.114 1923.58Z" fill="#232242"/>
<path d="M285.131 1800.84L448.27 1799.04L437.051 1841.84L285.131 1800.84Z" fill="#232242"/>
<path d="M936.046 1806.59L1098.99 1803.35L1111.95 1848.67L936.046 1806.59Z" fill="#232242"/>
<path d="M898.282 933.525L1190.2 1809.83L845.4 1807.67L725.602 1087.84C725.602 1087.84 570.199 1449.38 559.405 1496.86C548.611 1544.35 568.587 1809.83 568.587 1809.83L263.703 1801.19C263.703 1801.19 300.394 1501.18 352.207 1399.74C404.002 1298.29 589.631 955.112 589.631 955.112L898.282 933.525Z" fill="#CE4824"/>
<path d="M888.207 1142.97C888.773 1142.97 889.324 1142.64 889.577 1142.09C889.919 1141.33 889.606 1140.44 888.847 1140.09C888.133 1139.74 816.567 1105.1 792.572 986.461C792.394 985.657 791.605 985.121 790.771 985.285C789.968 985.449 789.432 986.253 789.61 987.071C813.932 1107.29 886.838 1142.48 887.567 1142.82C887.776 1142.92 887.999 1142.97 888.207 1142.97Z" fill="#232242"/>
<path d="M414.818 1802.7C415.523 1802.7 416.176 1802.18 416.296 1801.45C416.829 1798.36 468.391 1492.43 496.003 1439.29C523.736 1385.98 715.284 1064.36 717.192 1061.11C717.622 1060.4 717.399 1059.47 716.676 1059.04C715.954 1058.61 715.043 1058.85 714.613 1059.56C712.67 1062.81 521.088 1384.52 493.339 1437.89C465.486 1491.45 415.437 1788.33 413.322 1800.94C413.184 1801.77 413.735 1802.54 414.56 1802.69C414.646 1802.7 414.732 1802.7 414.818 1802.7Z" fill="#232242"/>
<path d="M277.303 563.059L412.44 416.528C414.954 413.794 414.789 409.538 412.073 406.988L372.501 370.021C369.749 367.452 365.456 367.617 362.906 370.369L227.768 516.9C225.236 519.633 225.401 523.908 228.117 526.44L267.689 563.425C270.441 565.994 274.734 565.829 277.303 563.059Z" fill="#CE4824"/>
<path d="M253.993 214.824C212.466 257.592 193.872 306.886 212.466 324.962C226.648 338.717 330.891 345.595 354.509 368.434C366.466 380.021 385.616 362.465 395.497 352.287C405.415 342.073 422.453 322.31 410.477 310.668C386.599 287.477 377.014 183.883 362.851 170.128C344.257 152.071 295.519 172.074 253.993 214.824Z" fill="#FF9C31"/>
<path d="M253.995 214.823C212.469 257.592 193.875 306.886 212.469 324.961C231.082 343.017 279.82 322.996 321.346 280.246C362.872 237.496 381.466 188.202 362.854 170.127C344.26 152.071 295.522 172.074 253.995 214.823Z" fill="#232242"/>
<path d="M292.506 300.379C306.183 313.659 328.041 313.335 341.339 299.658C354.619 285.981 354.313 264.124 340.618 250.825C326.941 237.545 305.084 237.852 291.786 251.546C278.505 265.223 278.812 287.08 292.506 300.379Z" fill="white"/>
<path d="M316.553 242.599C324.864 242.599 333.158 245.682 339.576 251.92C345.887 258.068 349.457 266.308 349.583 275.124C349.709 283.941 346.391 292.288 340.243 298.616C327.551 311.67 306.618 311.976 293.547 299.284C280.494 286.609 280.187 265.659 292.88 252.587C299.335 245.934 307.953 242.599 316.553 242.599ZM316.553 311.634C325.964 311.634 335.357 307.974 342.407 300.708C349.114 293.803 352.738 284.698 352.594 275.07C352.467 265.442 348.591 256.464 341.686 249.739C327.424 235.892 304.563 236.235 290.698 250.496C276.852 264.739 277.176 287.619 291.456 301.465C298.433 308.244 307.502 311.634 316.553 311.634Z" fill="#232242"/>
<path d="M351.345 365.805C327.571 348.506 256.468 340.857 225.54 331.134C248.727 334.895 287.433 315.157 321.334 280.247C355.179 245.412 373.78 206.228 369.451 183.151C380.109 214.153 389.758 285.842 408.359 308.351L515.673 412.601C516.095 412.987 516.388 413.445 516.645 413.922C516.865 414.087 517.122 414.234 517.305 414.436C524.331 421.241 517.232 438.338 501.603 454.463C486.414 470.092 468.656 477.65 461.227 471.872C460.511 471.615 459.851 471.211 459.282 470.661L351.345 365.805Z" fill="#CE4824"/>
<path d="M213.27 325.654C212.993 325.415 212.717 325.194 212.477 324.954C212.735 325.212 213.012 325.415 213.27 325.654Z" fill="#FF9C31"/>
<path d="M363.59 170.923C363.345 170.66 363.117 170.38 362.872 170.135C363.117 170.38 363.345 170.643 363.59 170.923Z" fill="#FF9C31"/>
<path d="M231.608 480.813C232.377 472.294 239.614 465.955 248.022 466.102C246.41 459.031 246.374 451.465 248.828 443.605C251.503 435.068 260.608 430.324 269.145 432.998C269.933 433.255 270.666 433.566 271.398 433.933C271.527 430.287 272.095 426.55 273.304 422.739C275.978 414.202 285.065 409.457 293.602 412.15C294.133 412.315 294.664 412.499 295.159 412.718C295.306 409.183 295.874 405.555 297.028 401.873C299.721 393.336 308.807 388.591 317.344 391.284C325.881 393.959 330.626 403.064 327.951 411.601C324.709 421.915 341.215 438.11 349.275 443.935C356.53 449.138 358.197 459.232 353.013 466.523C349.862 470.938 344.879 473.302 339.823 473.302C336.543 473.302 333.264 472.331 330.425 470.279C330.37 470.242 330.278 470.187 330.223 470.151C333.136 475.445 333.026 482.132 329.27 487.371C326.119 491.805 321.118 494.168 316.08 494.168C312.819 494.168 309.522 493.179 306.664 491.145C306.352 490.925 305.876 490.559 305.253 490.101C308.716 495.505 308.771 502.687 304.814 508.237C301.644 512.671 296.68 515.034 291.623 515.034C288.344 515.034 285.065 514.045 282.207 512.011C281.749 511.682 280.906 511.059 279.825 510.216C281.309 515.455 280.173 521.318 276.216 525.623C273.01 529.104 268.65 530.862 264.29 530.862C260.37 530.862 256.431 529.452 253.317 526.576C249.323 522.912 229.538 503.456 231.608 480.813Z" fill="white"/>
<path d="M279.811 508.697C279.518 508.697 279.225 508.789 278.968 508.972C278.436 509.339 278.18 509.999 278.363 510.64C279.775 515.607 278.565 520.831 275.1 524.589C272.314 527.613 268.374 529.336 264.286 529.336C260.584 529.336 257.064 527.961 254.333 525.469C250.447 521.876 231.11 502.887 233.108 480.947C233.804 473.34 240.33 467.511 248.01 467.603C248.45 467.64 248.908 467.401 249.201 467.053C249.494 466.686 249.604 466.21 249.513 465.752C247.808 458.365 248.065 451.051 250.264 444.05C251.437 440.31 254.022 437.249 257.504 435.435C260.968 433.62 264.946 433.272 268.685 434.445C269.4 434.665 270.078 434.958 270.738 435.288C271.196 435.508 271.728 435.471 272.168 435.215C272.608 434.958 272.901 434.482 272.901 433.969C273.029 430.284 273.634 426.655 274.734 423.191C275.907 419.452 278.473 416.391 281.956 414.576C285.438 412.743 289.397 412.395 293.155 413.586C293.631 413.733 294.09 413.898 294.548 414.099C295.006 414.301 295.538 414.246 295.941 413.99C296.381 413.733 296.637 413.275 296.656 412.78C296.802 409.206 297.407 405.686 298.47 402.332C299.662 398.575 302.21 395.514 305.692 393.699C309.175 391.884 313.152 391.536 316.891 392.709C320.649 393.901 323.691 396.467 325.506 399.931C327.339 403.413 327.687 407.391 326.514 411.13C322.995 422.329 339.73 438.881 348.381 445.149C354.961 449.86 356.483 459.061 351.79 465.642C349.023 469.491 344.569 471.782 339.821 471.782C336.742 471.782 333.791 470.847 331.28 469.051C330.712 468.648 329.85 468.611 329.3 469.087C328.787 469.546 328.567 470.261 328.897 470.884C331.665 475.888 331.335 481.881 328.036 486.5C325.305 490.349 320.814 492.659 316.066 492.659C313.005 492.659 310.054 491.706 307.543 489.91C307.25 489.69 306.755 489.341 306.15 488.883C305.582 488.443 304.757 488.498 304.208 488.993C303.676 489.488 303.584 490.295 303.969 490.918C307.232 495.995 307.085 502.465 303.584 507.359C300.835 511.208 296.344 513.518 291.615 513.518C288.536 513.518 285.585 512.565 283.074 510.768C282.634 510.457 281.809 509.852 280.728 509.027C280.471 508.807 280.141 508.697 279.811 508.697ZM264.286 532.36C269.217 532.36 273.982 530.289 277.318 526.642C280.618 523.067 282.231 518.393 281.919 513.646C284.815 515.534 288.151 516.542 291.615 516.542C297.316 516.542 302.723 513.756 306.04 509.119C309.23 504.665 310.11 499.129 308.662 494.052C310.971 495.115 313.5 495.665 316.066 495.665C321.785 495.665 327.192 492.897 330.492 488.26C333.608 483.898 334.542 478.527 333.204 473.505C335.331 474.385 337.53 474.806 339.821 474.806C345.54 474.806 350.929 472.039 354.247 467.383C359.91 459.446 358.077 448.375 350.141 442.693C341.526 436.461 326.569 421.046 329.392 412.047C330.803 407.538 330.382 402.735 328.182 398.538C326.001 394.341 322.317 391.243 317.808 389.832C313.28 388.42 308.497 388.842 304.299 391.023C300.102 393.222 297.022 396.907 295.593 401.416C294.658 404.385 294.035 407.483 293.778 410.617C289.342 409.297 284.65 409.755 280.544 411.882C276.365 414.081 273.267 417.765 271.838 422.293C270.903 425.317 270.28 428.488 270.023 431.696C269.877 431.659 269.73 431.604 269.583 431.567C265.074 430.138 260.29 430.559 256.093 432.759C251.896 434.94 248.798 438.642 247.387 443.151C245.205 450.098 244.802 457.32 246.195 464.652C237.782 465.403 230.89 472.112 230.102 480.672C227.976 504.023 248.211 523.929 252.299 527.686C255.58 530.711 259.832 532.36 264.286 532.36Z" fill="#232242"/>
<path d="M383.004 574.029C391.953 574.029 399.215 566.768 399.215 557.818C399.215 551.91 401.096 544.245 403.294 535.383C410.257 507.268 420.771 464.789 380.401 415.857C374.705 408.947 364.489 407.98 357.579 413.659C350.669 419.356 349.702 429.571 355.399 436.481C385.395 472.842 378.503 500.675 371.839 527.594C369.254 538.073 366.793 547.954 366.793 557.818C366.793 566.768 374.054 574.029 383.004 574.029Z" fill="white"/>
<path d="M238.032 132.345C238.275 132.345 238.518 132.289 238.742 132.158C239.471 131.765 239.751 130.849 239.378 130.12L171.383 1.70177C170.99 0.953959 170.074 0.673638 169.345 1.06624C168.597 1.45884 168.317 2.3748 168.709 3.10392L236.704 131.541C236.966 132.046 237.489 132.345 238.032 132.345Z" fill="#232242"/>
<path d="M191.601 174.419C192.019 174.419 192.437 174.248 192.741 173.906C193.292 173.279 193.235 172.329 192.627 171.778L121.397 108.11C120.77 107.54 119.82 107.597 119.25 108.224C118.699 108.851 118.756 109.801 119.383 110.352L190.613 174.02C190.879 174.286 191.24 174.419 191.601 174.419Z" fill="#232242"/>
<path d="M146.302 265.079C147.091 265.079 147.742 264.448 147.801 263.659C147.86 262.81 147.209 262.1 146.381 262.061L1.78036 253.42C0.971545 253.381 0.221796 254.012 0.182342 254.841C0.12316 255.669 0.754546 256.379 1.58309 256.439L146.203 265.079C146.223 265.079 146.262 265.079 146.302 265.079Z" fill="#232242"/>
<path d="M329.742 471.559C330.262 471.559 330.764 471.29 331.051 470.806C331.481 470.089 331.23 469.156 330.513 468.726C305.505 454.152 296.774 412.597 296.685 412.185C296.523 411.36 295.735 410.84 294.91 411.001C294.103 411.163 293.566 411.97 293.727 412.776C294.085 414.551 302.798 456.07 328.971 471.343C329.222 471.487 329.491 471.559 329.742 471.559Z" fill="#232242"/>
<path d="M303.836 491.697C304.36 491.697 304.83 491.444 305.119 490.993C305.571 490.288 305.354 489.348 304.649 488.915C278.252 472.238 273.717 434.982 273.681 434.621C273.591 433.79 272.886 433.175 272.019 433.284C271.188 433.374 270.591 434.133 270.682 434.964C270.881 436.536 275.397 474.009 303.023 491.462C303.294 491.625 303.565 491.697 303.836 491.697Z" fill="#232242"/>
<path d="M278.675 511.137C279.258 511.137 279.805 510.791 280.06 510.226C280.388 509.461 280.041 508.568 279.294 508.24C255.848 497.892 249.289 465.774 249.216 465.446C249.052 464.626 248.287 464.079 247.449 464.243C246.629 464.407 246.101 465.209 246.265 466.029C246.52 467.413 253.17 500.024 278.074 511.009C278.274 511.082 278.475 511.137 278.675 511.137Z" fill="#232242"/>
<path d="M729.603 650.375C725.854 635.363 727.706 618.931 736.145 604.521C753.255 575.237 790.87 565.394 820.154 582.504L825.122 585.436L829.488 588.059L837.851 593.258C843.374 596.73 848.743 600.232 854.082 603.781C864.774 610.847 875.157 618.129 885.448 625.535C905.999 640.408 925.948 655.945 945.358 672.207C964.752 688.453 983.59 705.425 1001.84 723.121C1020.02 740.88 1037.56 759.44 1054.38 778.757C1071.27 797.997 1087.1 818.362 1102.14 839.392C1117.29 860.344 1131.03 882.561 1143.77 905.411L1153.09 922.722L1161.71 940.496C1164.68 946.359 1167.22 952.484 1169.83 958.563L1173.72 967.681C1175.04 970.705 1176.31 973.775 1177.4 976.907L1184.33 995.592C1186.63 1001.82 1188.42 1008.27 1190.46 1014.6L1193.44 1024.15C1194.41 1027.34 1195.15 1030.62 1196 1033.84L1199.9 1049.31C1235.03 1075.23 1259.33 1091.92 1272.68 1147.63L1277.04 1167.14C1280.44 1175.42 1276.47 1184.88 1268.2 1188.27C1266.18 1189.1 1264.1 1189.5 1262.05 1189.5C1259.02 1189.5 1256.08 1188.6 1253.53 1187.03C1257.6 1195.5 1254.33 1205.74 1245.97 1210.21C1243.33 1211.61 1240.49 1212.27 1237.68 1212.27C1235.76 1212.27 1233.84 1211.92 1232.02 1211.3C1233.29 1218.67 1229.74 1226.33 1222.75 1229.94C1220.17 1231.27 1217.41 1231.9 1214.7 1231.9C1209.9 1231.9 1205.22 1229.94 1201.87 1226.39C1202.29 1233.15 1198.79 1239.82 1192.39 1243.12C1189.81 1244.46 1187.03 1245.1 1184.32 1245.1C1177.94 1245.1 1171.79 1241.62 1168.66 1235.56L1153.78 1206.77C1146.96 1208.39 1139.62 1209.59 1132.41 1209.59C1122.25 1209.59 1112.33 1207.2 1104.4 1200.31C1086.19 1184.47 1090.74 1157.24 1095.14 1130.92C1097.56 1116.43 1100.25 1100.11 1098.04 1090.08C1096.76 1087.36 1095.63 1084.52 1094.8 1081.54L1093.92 1078.4L1089.68 1063.23C1088.95 1060.71 1088.35 1058.16 1087.52 1055.66L1084.97 1048.18C1083.23 1043.19 1081.76 1038.15 1079.8 1033.23L1073.92 1018.46C1073.01 1015.97 1071.95 1013.55 1070.79 1011.14L1067.48 1003.88C1065.27 999.017 1063.16 994.141 1060.59 989.42L1053.3 975.118L1045.29 961.093C1034.35 942.517 1022.56 924.265 1009.31 906.83C996.164 889.35 982.309 872.239 967.297 855.931C952.378 839.592 936.748 823.747 920.425 808.503C904.055 793.337 887.053 778.711 869.526 764.702C869.418 764.609 869.31 764.516 869.186 764.424L898.269 859.063L776.337 888.208L700.782 658.321L729.603 650.375Z" fill="white"/>
<path d="M1201.89 1224.89C1201.69 1224.89 1201.49 1224.93 1201.28 1225.01C1200.7 1225.26 1200.34 1225.85 1200.37 1226.49C1200.76 1232.86 1197.36 1238.86 1191.7 1241.8C1189.4 1242.98 1186.91 1243.58 1184.32 1243.58C1178.27 1243.58 1172.79 1240.25 1170.01 1234.88L1155.14 1206.08C1154.82 1205.45 1154.11 1205.14 1153.44 1205.29C1145.58 1207.17 1138.71 1208.09 1132.41 1208.09C1121.28 1208.09 1112.19 1205.09 1105.38 1199.18C1087.83 1183.89 1092.29 1157.09 1096.63 1131.18C1099.07 1116.64 1101.82 1100.17 1099.52 1089.77C1099.5 1089.66 1099.45 1089.56 1099.41 1089.45C1098.03 1086.52 1097 1083.8 1096.26 1081.13L1091.15 1062.84C1090.89 1061.92 1090.62 1061 1090.39 1060.09C1089.94 1058.45 1089.51 1056.81 1088.96 1055.18L1086.42 1047.69C1085.76 1045.84 1085.14 1044 1084.56 1042.16C1083.52 1039.04 1082.46 1035.81 1081.21 1032.68L1075.34 1017.91C1074.49 1015.64 1073.46 1013.2 1072.16 1010.48L1067.77 1000.85C1065.98 996.851 1064.1 992.698 1061.94 988.7L1054.64 974.435L1046.62 960.34C1034.37 939.575 1022.56 921.775 1010.53 905.92C995.956 886.56 982.185 869.872 968.414 854.912C953.423 838.47 937.615 822.491 921.466 807.408C905.132 792.294 887.996 777.52 870.489 763.517C869.964 763.1 869.069 762.946 868.528 763.317C867.973 763.672 867.556 764.243 867.756 764.86L896.364 857.969L777.335 886.406L702.721 659.371L730.001 651.852C730.788 651.621 731.267 650.818 731.066 650.031C727.253 634.747 729.522 618.845 737.442 605.29C745.516 591.473 758.5 581.639 773.984 577.579C789.454 573.534 805.587 575.742 819.388 583.816L828.713 589.358L837.065 594.545C842.237 597.803 847.532 601.23 853.26 605.044C862.708 611.296 872.65 618.197 884.584 626.765C905.04 641.586 925.156 657.256 944.392 673.373C963.782 689.63 982.756 706.735 1000.79 724.227C1018.88 741.873 1036.54 760.569 1053.25 779.758C1069.09 797.79 1084.66 817.567 1100.92 840.276C1115.08 859.868 1128.66 881.404 1142.45 906.152L1151.77 923.442L1160.36 941.165C1162.95 946.322 1165.27 951.725 1167.51 956.99L1172.34 968.291C1173.79 971.61 1174.99 974.589 1176 977.43L1182.93 996.11C1184.41 1000.2 1185.74 1004.48 1187 1008.6C1187.67 1010.78 1188.35 1012.92 1189.04 1015.08L1192.01 1024.61C1192.62 1026.65 1193.15 1028.76 1193.67 1030.85C1193.97 1031.98 1194.24 1033.12 1194.55 1034.25L1198.44 1049.69C1198.54 1050.02 1198.74 1050.33 1199.02 1050.53L1201.69 1052.5C1235.8 1077.64 1258.33 1094.25 1271.2 1147.98L1275.57 1167.47C1278.72 1175.21 1275.13 1183.81 1267.62 1186.89C1263.33 1188.65 1258.34 1188.25 1254.33 1185.76C1253.74 1185.4 1253.02 1185.48 1252.52 1185.92C1252.01 1186.37 1251.88 1187.09 1252.17 1187.69C1255.92 1195.49 1252.89 1204.8 1245.25 1208.88C1241.44 1210.92 1236.99 1211.4 1232.52 1209.88C1232.02 1209.72 1231.45 1209.81 1231.05 1210.16C1230.65 1210.5 1230.46 1211.04 1230.56 1211.57C1231.73 1218.52 1228.33 1225.36 1222.06 1228.6C1215.8 1231.82 1207.77 1230.42 1202.98 1225.36C1202.69 1225.05 1202.3 1224.89 1201.89 1224.89ZM1184.32 1246.61C1187.34 1246.61 1190.37 1245.88 1193.09 1244.47C1198.8 1241.52 1202.6 1235.93 1203.31 1229.66C1208.97 1233.85 1217.06 1234.57 1223.45 1231.28C1230.2 1227.8 1234.15 1220.78 1233.78 1213.37C1238.29 1214.34 1242.78 1213.62 1246.69 1211.54C1254.59 1207.32 1258.34 1198.37 1256.2 1190C1260.29 1191.44 1264.78 1191.32 1268.78 1189.68C1277.81 1185.97 1282.15 1175.61 1278.45 1166.57L1274.15 1147.3C1261.02 1092.46 1236.89 1074.69 1203.48 1050.06L1201.24 1048.42L1197.47 1033.49C1197.16 1032.36 1196.88 1031.24 1196.61 1030.12C1196.07 1027.97 1195.54 1025.82 1194.88 1023.71L1191.93 1014.17C1191.22 1012.01 1190.57 1009.87 1189.89 1007.7C1188.61 1003.54 1187.28 999.229 1185.77 995.076L1178.84 976.396C1177.82 973.509 1176.58 970.467 1175.12 967.086L1170.28 955.801C1168.03 950.506 1165.7 945.04 1163.07 939.822L1154.46 922.084L1145.1 904.7C1131.24 879.829 1117.59 858.2 1103.38 838.516C1087.07 815.729 1071.42 795.861 1055.52 777.751C1038.77 758.531 1021.06 739.789 1002.9 722.05C984.809 704.497 965.774 687.36 946.322 671.042C927.055 654.909 906.877 639.177 886.344 624.31C874.395 615.711 864.406 608.795 854.927 602.527C849.184 598.698 843.873 595.256 838.671 591.983L825.919 584.125L820.917 581.207C806.42 572.731 789.469 570.4 773.197 574.661C756.956 578.922 743.324 589.266 734.848 603.778C726.759 617.579 724.273 633.697 727.793 649.32L700.39 656.87C699.989 656.978 699.665 657.256 699.464 657.626C699.263 657.981 699.217 658.414 699.356 658.815L774.895 888.675C775.142 889.416 775.914 889.864 776.686 889.679L898.633 860.531C899.034 860.439 899.39 860.176 899.59 859.806C899.806 859.451 899.837 859.018 899.729 858.617L872.079 768.674C888.305 781.796 904.222 795.552 919.397 809.616C935.5 824.637 951.231 840.57 966.191 856.965C979.9 871.832 993.609 888.444 1008.11 907.742C1020.09 923.504 1031.82 941.212 1043.98 961.868L1051.98 975.871L1059.25 990.105C1061.38 994.042 1063.24 998.133 1065.03 1002.1L1069.43 1011.76C1070.68 1014.4 1071.7 1016.77 1072.53 1018.99L1078.4 1033.8C1079.62 1036.85 1080.65 1040.02 1081.67 1043.1C1082.29 1044.97 1082.9 1046.82 1083.57 1048.69L1086.1 1056.16C1086.61 1057.7 1087.04 1059.29 1087.47 1060.88C1087.72 1061.8 1087.97 1062.73 1088.25 1063.66L1093.36 1081.94C1094.13 1084.73 1095.19 1087.54 1096.6 1090.58C1098.71 1100.42 1095.9 1117.2 1093.65 1130.68C1089.19 1157.42 1084.56 1185.06 1103.42 1201.45C1110.77 1207.86 1120.54 1211.12 1132.41 1211.12C1138.64 1211.12 1145.38 1210.26 1152.99 1208.5L1167.32 1236.26C1170.61 1242.65 1177.14 1246.61 1184.32 1246.61Z" fill="#232242"/>
<path d="M1153.81 1208.15C1154.01 1208.15 1154.23 1208.11 1154.43 1208.02C1155.19 1207.67 1155.52 1206.78 1155.19 1206.02L1133.77 1158.73C1133.43 1157.97 1132.52 1157.63 1131.77 1157.98C1131 1158.31 1130.67 1159.22 1131.01 1159.97L1152.43 1207.26C1152.68 1207.82 1153.23 1208.15 1153.81 1208.15Z" fill="#232242"/>
<path d="M1202.71 1228.81C1202.92 1228.81 1203.13 1228.77 1203.33 1228.67C1204.09 1228.33 1204.43 1227.43 1204.09 1226.67L1180.17 1174.13C1179.83 1173.37 1178.93 1173.05 1178.17 1173.38C1177.41 1173.73 1177.08 1174.62 1177.43 1175.38L1201.33 1227.93C1201.59 1228.47 1202.13 1228.81 1202.71 1228.81Z" fill="#232242"/>
<path d="M1232.04 1212.82C1232.26 1212.82 1232.48 1212.77 1232.7 1212.66C1233.44 1212.3 1233.76 1211.39 1233.39 1210.65L1210.91 1164.55C1210.54 1163.81 1209.63 1163.5 1208.88 1163.86C1208.14 1164.22 1207.83 1165.13 1208.19 1165.89L1230.68 1211.97C1230.94 1212.5 1231.48 1212.82 1232.04 1212.82Z" fill="#232242"/>
<path d="M1254.16 1189.65C1254.39 1189.65 1254.63 1189.6 1254.84 1189.49C1255.59 1189.12 1255.88 1188.2 1255.51 1187.46L1232.14 1141.54C1231.75 1140.8 1230.84 1140.5 1230.1 1140.89C1229.35 1141.26 1229.06 1142.17 1229.43 1142.92L1252.82 1188.82C1253.08 1189.36 1253.62 1189.65 1254.16 1189.65Z" fill="#232242"/>
<path d="M626.348 618.406L673.48 609.824L647.877 469.469L600.744 478.051L626.348 618.406Z" fill="white"/>
<path d="M671.717 608.603L627.558 616.661L602.5 479.272L646.643 471.214L671.717 608.603ZM626.338 619.92C626.434 619.92 626.53 619.904 626.611 619.888L673.739 611.3C674.14 611.22 674.478 610.995 674.718 610.674C674.943 610.353 675.023 609.935 674.959 609.55L649.356 469.192C649.212 468.373 648.409 467.827 647.59 467.972L600.478 476.559C600.076 476.64 599.723 476.864 599.499 477.202C599.274 477.523 599.178 477.924 599.258 478.325L624.861 618.684C624.989 619.406 625.615 619.92 626.338 619.92Z" fill="#232242"/>
<path d="M604.024 497.771C604.024 536.593 615.721 567.323 632.816 567.323C649.896 567.323 665.902 536.593 665.902 497.771C665.902 458.965 652.043 427.497 634.963 427.497C617.884 427.497 604.024 458.965 604.024 497.771Z" fill="#232242"/>
<path d="M590.571 487.491C590.571 523.405 609.672 552.522 633.233 552.522C656.794 552.522 675.895 523.405 675.895 487.491C675.895 451.562 656.794 422.46 633.233 422.46C609.672 422.46 590.571 451.562 590.571 487.491Z" fill="white"/>
<path d="M633.242 423.973C655.93 423.973 674.397 452.463 674.397 487.495C674.397 522.526 655.93 551.016 633.242 551.016C610.553 551.016 592.103 522.526 592.103 487.495C592.103 452.463 610.553 423.973 633.242 423.973ZM633.242 554.029C657.59 554.029 677.41 524.186 677.41 487.495C677.41 450.803 657.59 420.944 633.242 420.944C608.893 420.944 589.073 450.803 589.073 487.495C589.073 524.186 608.893 554.029 633.242 554.029Z" fill="#232242"/>
<path d="M1191.98 2164.01L1190.92 2104.01L854.156 2097.9L856.923 2158.81L1037.73 2161.71L1063.26 2125.5L1089.28 2162.69L1191.98 2164.01Z" fill="#232242"/>
<path d="M947.454 1897.25C1014.21 1900.78 1072.88 1898.84 1139.59 1895.82L1190.93 2104.01L854.184 2097.9L852.371 2070.77L953.935 1997.61L947.454 1897.25Z" fill="white"/>
<path d="M1138.41 1897.39L1188.97 2102.46L855.589 2096.41L853.935 2071.5L954.81 1998.83C955.217 1998.53 955.463 1998.03 955.434 1997.51L949.051 1898.84C1016.37 1902.33 1074.73 1900.26 1138.41 1897.39ZM1190.93 2105.51C1191.38 2105.51 1191.82 2105.31 1192.09 2104.95C1192.4 2104.58 1192.5 2104.1 1192.4 2103.65L1141.05 1895.46C1140.88 1894.77 1140.24 1894.18 1139.53 1894.31C1074.89 1897.23 1015.86 1899.35 947.527 1895.74C947.078 1895.7 946.671 1895.87 946.367 1896.18C946.076 1896.49 945.917 1896.91 945.931 1897.34L952.344 1996.87L851.483 2069.54C851.063 2069.85 850.831 2070.34 850.86 2070.86L852.659 2097.99C852.717 2098.78 853.369 2099.39 854.138 2099.41L1190.9 2105.51C1190.9 2105.51 1190.92 2105.51 1190.93 2105.51Z" fill="#232242"/>
<path d="M421.457 2164.01L420.38 2104.01L80.8175 2097.9L83.587 2158.81L267.196 2161.71L292.717 2125.5L318.757 2162.69L421.457 2164.01Z" fill="#232242"/>
<path d="M251.567 1897.25C318.341 1900.78 369.663 1898.83 436.379 1895.82L420.369 2104.01L80.8224 2097.9L79.0135 2070.77L217.257 1997.61L251.567 1897.25Z" fill="white"/>
<path d="M434.743 1897.41L418.975 2102.47L82.224 2096.41L80.5683 2071.63L217.956 1998.94C218.283 1998.77 218.553 1998.46 218.669 1998.1L252.631 1898.81C317.262 1902.19 366.973 1900.46 434.743 1897.41ZM420.361 2105.51C421.15 2105.51 421.824 2104.91 421.882 2104.13L437.881 1895.94C437.919 1895.51 437.766 1895.09 437.457 1894.77C437.169 1894.46 436.764 1894.25 436.321 1894.31C367.358 1897.43 317.243 1899.21 251.649 1895.74C250.975 1895.67 250.359 1896.11 250.147 1896.75L216.012 1996.55L78.2965 2069.42C77.7767 2069.7 77.4493 2070.26 77.4879 2070.86L79.2975 2097.99C79.336 2098.78 79.9906 2099.39 80.78 2099.41L420.342 2105.51C420.361 2105.51 420.361 2105.51 420.361 2105.51Z" fill="#232242"/>
<path d="M896.123 837.471L925.258 928.132C925.258 928.132 856.187 995.037 755.827 1006.92C655.468 1018.78 562.655 1008 562.655 1008C562.655 1008 535.674 625.966 564.809 605.447C593.96 584.961 619.855 576.313 619.855 576.313C619.855 576.313 622.009 605.447 644.682 600.071C667.338 594.661 666.253 567.681 666.253 567.681L803.31 574.159C803.31 574.159 689.995 556.895 749.349 739.282C774.636 816.952 828.137 865.537 896.123 837.471Z" fill="#232242"/>
<path d="M869.133 764.093L753.661 674.524L883.527 810.855L869.133 764.093Z" fill="#232242"/>
<path d="M688.904 389.58C671.735 368.948 645.63 355.602 618.741 358.346C611.194 359.13 602.062 362.92 596.835 368.769C594.156 371.774 592.375 375.238 592.865 379.354C593.47 384.369 599.204 388.045 598.861 393.027C589.369 387.963 577.461 389.826 568.901 396.474C556.453 406.145 552.908 425.552 555.946 440.254C559.475 457.374 579.421 474.592 596.574 461.458C597.194 460.968 597.799 460.429 598.354 459.841C606.146 451.461 607.323 442.476 621.861 442.934C636.58 443.407 640.615 458.191 647.345 468.156C659.467 486.109 656.559 457.783 665.348 457.668C676.799 457.521 671.523 483.054 671.327 489.736C670.984 501.743 681.634 495.845 687.287 491.435C696.647 484.149 703.606 474.151 706.498 462.602C712.967 436.628 705.893 409.984 688.904 389.58Z" fill="#232242"/>
<path d="M714.085 1037.84L706.542 1133.18L725.414 1088.56L714.085 1037.84Z" fill="#232242"/>
<path d="M1068.79 1809.39C1068.92 1809.39 1069.05 1809.37 1069.18 1809.34C1069.98 1809.11 1070.46 1808.29 1070.24 1807.49L845.768 980.822C845.564 980.021 844.72 979.555 843.919 979.759C843.119 979.977 842.638 980.807 842.856 981.622L1067.33 1808.27C1067.51 1808.94 1068.12 1809.39 1068.79 1809.39Z" fill="#232242"/>
<path d="M398.986 560.508C399.127 559.646 399.215 558.75 399.215 557.818C399.215 551.91 401.096 544.244 403.294 535.382C410.257 507.268 420.771 464.789 380.401 415.856C374.705 408.947 364.489 407.979 357.579 413.659C350.669 419.355 349.702 429.571 355.399 436.481C377.764 463.575 379.628 485.94 376.375 506.705" fill="white"/>
<path d="M398.986 562.026C399.707 562.026 400.34 561.499 400.48 560.76C400.639 559.811 400.709 558.827 400.709 557.824C400.709 552.093 402.59 544.515 404.753 535.759C411.803 507.347 422.405 464.412 381.562 414.901C378.538 411.244 374.283 408.976 369.589 408.537C364.877 408.08 360.271 409.486 356.614 412.51C352.974 415.517 350.724 419.772 350.267 424.483C349.809 429.178 351.216 433.784 354.24 437.441C377.536 465.678 377.747 488.183 374.864 506.485C374.741 507.312 375.303 508.085 376.13 508.208C376.956 508.349 377.729 507.769 377.853 506.942C380.824 487.989 380.631 464.676 356.561 435.525C354.064 432.483 352.886 428.668 353.255 424.765C353.642 420.862 355.524 417.328 358.548 414.831C361.572 412.334 365.387 411.174 369.29 411.543C373.193 411.912 376.727 413.794 379.224 416.818C419.117 465.168 408.709 507.206 401.834 535.021C399.601 543.987 397.685 551.723 397.685 557.824C397.685 558.651 397.615 559.477 397.492 560.268C397.351 561.095 397.896 561.868 398.722 562.009C398.81 562.026 398.898 562.026 398.986 562.026Z" fill="#232242"/>
</svg>
