<svg width="1276" height="859" viewBox="0 0 1276 859" fill="none" xmlns="http://www.w3.org/2000/svg">
<g clip-path="url(#clip0_973_10736)">
<path d="M800.5 860.896H0C1.41259 798.084 22.1283 769.861 85.5 728.896L898 221.396C1019.68 145.684 1070.2 141.414 1120 221.396L1257 438.396C1289.29 502.656 1291.57 540.254 1178.5 618.896L800.5 860.896Z" fill="white" stroke="#232242" stroke-width="6"/>
<g clip-path="url(#clip1_973_10736)">
<path d="M931.533 858.282H213.293C207.632 858.282 203 853.651 203 847.989C203 842.328 207.632 837.695 213.293 837.695H931.533C937.194 837.695 941.827 842.328 941.827 847.989C941.827 853.651 937.194 858.282 931.533 858.282Z" fill="#9386AC"/>
<path d="M771.579 430.093C766.479 424.654 766.921 416.26 772.567 411.345L773.205 410.79C778.85 405.876 787.561 406.301 792.661 411.741C797.762 417.179 797.32 425.573 791.675 430.487L791.035 431.043C785.391 435.958 776.68 435.532 771.579 430.093Z" fill="#A53112"/>
<path d="M782.412 456.491L768.997 468.17L730.902 427.543L744.319 415.865C753.613 407.773 766.946 406.698 777.294 412.314C779.908 413.728 782.326 415.564 784.447 417.825C789.702 423.43 792.106 430.56 791.747 437.564C791.369 444.568 788.228 451.428 782.412 456.491Z" fill="#F14E30"/>
<path d="M770.291 443.562L756.876 455.241L730.902 427.541L744.319 415.863C753.613 407.771 766.946 406.695 777.294 412.312C779.072 416.23 779.847 420.453 779.626 424.636C779.249 431.64 776.108 438.499 770.291 443.562Z" fill="#F8A12B"/>
<path d="M769.689 468.012C765.642 471.626 753.682 465.588 742.976 454.502C732.269 443.416 726.857 431.496 730.911 427.871C734.102 425.006 742.252 428.184 750.822 435.12C753.079 436.964 755.381 439.059 757.612 441.374C760.223 444.081 762.524 446.835 764.444 449.508C770.405 457.783 772.747 465.275 769.689 468.012Z" fill="#3A345B"/>
<path d="M764.446 449.508C761.346 452.923 756.073 453.898 751.801 451.572C746.92 448.916 745.193 442.93 747.956 438.218C748.692 436.961 749.678 435.912 750.825 435.12C753.081 436.964 755.383 439.059 757.615 441.374C760.226 444.081 762.527 446.835 764.446 449.508Z" fill="white"/>
<path d="M839.332 561.469L874.108 449.216L803.686 402.304L788.906 414.87" stroke="#A53112" stroke-width="5.43962" stroke-miterlimit="10"/>
<path d="M811.421 402.972C811.421 407.581 807.545 411.316 802.763 411.316C797.98 411.316 794.104 407.581 794.104 402.972C794.104 398.365 797.98 394.63 802.763 394.63C807.545 394.63 811.421 398.365 811.421 402.972Z" fill="#A53112"/>
<path d="M807.09 402.973C807.09 405.277 805.152 407.146 802.761 407.146C800.37 407.146 798.432 405.277 798.432 402.973C798.432 400.67 800.37 398.803 802.761 398.803C805.152 398.803 807.09 400.67 807.09 402.973Z" fill="#3A345B"/>
<path d="M874.339 575.69H784.75C784.75 565.86 792.719 557.892 802.549 557.892H856.541C866.371 557.892 874.339 565.86 874.339 575.69Z" fill="#F8A12B"/>
<path d="M819.384 558.336H803.221V553.442H819.384V558.336Z" fill="#A53112"/>
<path d="M885.539 450.36C885.539 456.811 880.112 462.04 873.417 462.04C866.722 462.04 861.295 456.811 861.295 450.36C861.295 443.909 866.722 438.68 873.417 438.68C880.112 438.68 885.539 443.909 885.539 450.36Z" fill="#A53112"/>
<path d="M879.476 450.361C879.476 453.586 876.763 456.201 873.415 456.201C870.068 456.201 867.354 453.586 867.354 450.361C867.354 447.135 870.068 444.521 873.415 444.521C876.763 444.521 879.476 447.135 879.476 450.361Z" fill="#3A345B"/>
<path d="M925.224 549.645H843.053V521.218H925.224C928.698 521.218 931.514 524.034 931.514 527.508V543.356C931.514 546.83 928.698 549.645 925.224 549.645Z" fill="#581B3A"/>
<path d="M895.303 549.645H813.133V521.218H895.303C898.777 521.218 901.593 524.034 901.593 527.508V543.356C901.593 546.83 898.777 549.645 895.303 549.645Z" fill="#581B3A"/>
<path d="M891.237 545.74H813.133V524.054H891.237C894.212 524.054 896.624 526.465 896.624 529.441V540.353C896.624 543.328 894.212 545.74 891.237 545.74Z" fill="#EBEDEE"/>
<path d="M926.467 534.496H907.766V532.439H926.467V534.496Z" fill="white"/>
<path d="M926.467 538.903H907.766V536.847H926.467V538.903Z" fill="white"/>
<path d="M938.558 499.34H856.387V470.914H938.558C942.032 470.914 944.848 473.729 944.848 477.202V493.05C944.848 496.524 942.032 499.34 938.558 499.34Z" fill="#581B3A"/>
<path d="M908.634 499.34H826.463V470.914H908.634C912.108 470.914 914.924 473.729 914.924 477.202V493.05C914.924 496.524 912.108 499.34 908.634 499.34Z" fill="#581B3A"/>
<path d="M905.608 496.474H826.463V473.747H905.608C908.583 473.747 910.996 476.158 910.996 479.135V491.086C910.996 494.061 908.583 496.474 905.608 496.474Z" fill="#EBEDEE"/>
<path d="M941.746 489.988H918.867V479.889H941.746V489.988Z" fill="#EBEDEE"/>
<path d="M939.796 484.191H921.094V482.134H939.796V484.191Z" fill="#A53112"/>
<path d="M939.796 487.557H921.094V485.499H939.796V487.557Z" fill="#A53112"/>
<path d="M931.209 576.577H849.039V548.15H931.209C934.683 548.15 937.499 550.966 937.499 554.439V570.288C937.499 573.761 934.683 576.577 931.209 576.577Z" fill="#A53112"/>
<path d="M901.288 576.577H819.117V548.15H901.288C904.761 548.15 907.577 550.966 907.577 554.439V570.288C907.577 573.761 904.761 576.577 901.288 576.577Z" fill="#A53112"/>
<path d="M897.221 572.67H819.117V552.024H897.221C900.197 552.024 902.609 554.436 902.609 557.411V567.282C902.609 570.259 900.197 572.67 897.221 572.67Z" fill="#EBEDEE"/>
<path d="M934.399 567.226H911.521V557.127H934.399V567.226Z" fill="#EBEDEE"/>
<path d="M932.45 561.429H913.748V559.372H932.45V561.429Z" fill="#A53112"/>
<path d="M932.45 564.795H913.748V562.737H932.45V564.795Z" fill="#A53112"/>
<path d="M832.33 499.136V521.241H926.755C932.857 521.241 937.809 516.29 937.809 510.188C937.809 507.144 936.571 504.378 934.574 502.369C932.566 500.374 929.8 499.136 926.755 499.136H832.33Z" fill="#DAD4D2"/>
<path d="M821.359 499.136V521.241H900.824C906.925 521.241 911.877 516.29 911.877 510.188C911.877 507.144 910.639 504.378 908.644 502.369C906.635 500.374 903.868 499.136 900.824 499.136H821.359Z" fill="#CE4824"/>
<path d="M821.359 502.924V517.097H897.843C901.759 517.097 904.929 513.926 904.929 510.01C904.929 508.053 904.134 506.284 902.858 504.995C901.569 503.72 899.8 502.924 897.843 502.924H821.359Z" fill="#EBEDEE"/>
<path d="M826.453 477.081H908.252" stroke="#9386AC" stroke-width="1.49615" stroke-miterlimit="10"/>
<path d="M826.453 481.82H908.252" stroke="#9386AC" stroke-width="1.49615" stroke-miterlimit="10"/>
<path d="M826.453 486.558H908.252" stroke="#9386AC" stroke-width="1.49615" stroke-miterlimit="10"/>
<path d="M826.453 491.297H908.252" stroke="#9386AC" stroke-width="1.49615" stroke-miterlimit="10"/>
<path d="M813.068 528.199H895.356" stroke="#9386AC" stroke-width="1.49615" stroke-miterlimit="10"/>
<path d="M813.068 532.939H895.356" stroke="#9386AC" stroke-width="1.49615" stroke-miterlimit="10"/>
<path d="M813.068 537.676H895.356" stroke="#9386AC" stroke-width="1.49615" stroke-miterlimit="10"/>
<path d="M813.068 542.414H895.356" stroke="#9386AC" stroke-width="1.49615" stroke-miterlimit="10"/>
<path d="M819.303 555.381H901.592" stroke="#9386AC" stroke-width="1.49615" stroke-miterlimit="10"/>
<path d="M819.303 560.119H901.592" stroke="#9386AC" stroke-width="1.49615" stroke-miterlimit="10"/>
<path d="M819.303 563.815H901.592" stroke="#9386AC" stroke-width="1.49615" stroke-miterlimit="10"/>
<path d="M819.303 568.555H901.592" stroke="#9386AC" stroke-width="1.49615" stroke-miterlimit="10"/>
<path d="M380.185 858.558H356.246V599.225H380.185V858.558Z" fill="#CE4824"/>
<path d="M605.604 674.531L462.722 685.254L423.074 484.021L519.046 483.684C545.933 483.591 569.197 502.381 574.76 528.687L605.604 674.531Z" fill="#5E2B48"/>
<path d="M433.664 675.839L409.897 499.752C408.839 491.907 414.391 484.623 422.235 483.564C430.08 482.505 437.365 488.057 438.424 495.901L462.19 671.989C463.249 679.833 457.697 687.118 449.852 688.177C442.008 689.236 434.723 683.683 433.664 675.839Z" fill="#DAD4D2"/>
<path d="M531.799 699.962V798.708H515.057V699.962H531.799Z" fill="#484F7B"/>
<path d="M531.799 705.708V728.023L515.057 721.546V706.437C519.246 706.239 527.31 705.904 531.799 705.708Z" fill="#A53112"/>
<path d="M562.216 707.946H487.408C483.294 707.946 479.928 704.58 479.928 700.466C479.928 696.352 483.294 692.985 487.408 692.985H562.216C566.331 692.985 569.697 696.352 569.697 700.466C569.697 704.58 566.331 707.946 562.216 707.946Z" fill="#262E50"/>
<path d="M598.827 698.968H512.846C502.558 698.968 494.141 690.55 494.141 680.263C494.141 669.975 502.558 661.558 512.846 661.558H598.827C609.116 661.558 617.532 669.975 617.532 680.263C617.532 690.55 609.116 698.968 598.827 698.968Z" fill="#5E2B48"/>
<path d="M523.274 699.468H454.498C444.21 699.468 435.793 691.051 435.793 680.763C435.793 670.476 444.21 662.058 454.498 662.058H523.274C533.561 662.058 541.979 670.476 541.979 680.763C541.979 691.051 533.561 699.468 523.274 699.468Z" fill="#DAD4D2"/>
<path d="M594.384 831.627H583.91C583.91 819.115 573.73 808.936 561.219 808.936H484.915C472.402 808.936 462.223 819.115 462.223 831.627H451.75C451.75 813.34 466.628 798.462 484.915 798.462H561.219C579.506 798.462 594.384 813.34 594.384 831.627Z" fill="#A53112"/>
<path d="M535.536 798.713H511.098V782.753H535.536V798.713Z" fill="#A53112"/>
<path d="M465.286 841.754C465.286 846.559 461.391 850.454 456.586 850.454C451.783 850.454 447.887 846.559 447.887 841.754C447.887 836.949 451.783 833.055 456.586 833.055C461.391 833.055 465.286 836.949 465.286 841.754Z" fill="#A53112"/>
<path d="M469.135 840.986H445.326V838.343C445.326 832.02 450.452 826.895 456.774 826.895H457.687C464.009 826.895 469.135 832.02 469.135 838.343V840.986Z" fill="#3A345B"/>
<path d="M598.337 841.754C598.337 846.559 594.442 850.454 589.637 850.454C584.832 850.454 580.938 846.559 580.938 841.754C580.938 836.949 584.832 833.055 589.637 833.055C594.442 833.055 598.337 836.949 598.337 841.754Z" fill="#A53112"/>
<path d="M602.182 840.986H578.373V838.343C578.373 832.02 583.498 826.895 589.821 826.895H590.733C597.056 826.895 602.182 832.02 602.182 838.343V840.986Z" fill="#3A345B"/>
<path d="M530.738 833.123H516.875V801.704H530.738V833.123Z" fill="#A53112"/>
<path d="M532.8 841.754C532.8 846.559 528.904 850.454 524.1 850.454C519.295 850.454 515.4 846.559 515.4 841.754C515.4 836.949 519.295 833.055 524.1 833.055C528.904 833.055 532.8 836.949 532.8 841.754Z" fill="#A53112"/>
<path d="M536.644 840.986H512.836V838.343C512.836 832.02 517.961 826.895 524.284 826.895H525.196C531.519 826.895 536.644 832.02 536.644 838.343V840.986Z" fill="#3A345B"/>
<path d="M700.323 538.91L724.053 545.714C725.786 546.21 727.611 545.199 728.107 543.466C728.605 541.733 727.593 539.908 725.86 539.412L702.13 532.608C700.397 532.111 698.572 533.122 698.076 534.855C697.579 536.588 698.59 538.413 700.323 538.91Z" fill="#F79073"/>
<path d="M706.864 546.77L725.918 552.233C727.651 552.73 729.476 551.719 729.973 549.986C730.469 548.253 729.458 546.428 727.725 545.932L708.67 540.468C706.937 539.972 705.114 540.983 704.616 542.716C704.12 544.449 705.131 546.274 706.864 546.77Z" fill="#F79073"/>
<path d="M701.45 551.194L724.003 557.66C725.736 558.157 727.56 557.145 728.057 555.413C728.554 553.678 727.543 551.855 725.81 551.358L703.257 544.892C701.524 544.395 699.699 545.407 699.203 547.14C698.706 548.873 699.717 550.697 701.45 551.194Z" fill="#F79073"/>
<path d="M682.637 552.866L706.848 557.691C708.615 558.043 710.35 556.885 710.703 555.116C711.056 553.349 709.897 551.614 708.128 551.261L683.918 546.436C682.15 546.084 680.416 547.243 680.063 549.01C679.711 550.778 680.869 552.514 682.637 552.866Z" fill="#F79073"/>
<path d="M718.377 544.792C718.127 544.709 715.436 543.405 712.524 541.983C707.497 539.527 701.956 538.304 696.362 538.412L685.648 538.62C685.648 538.62 683.592 556.387 684.34 556.2C685.087 556.014 707.904 560.128 707.904 560.128L718.377 544.792Z" fill="#F79073"/>
<path d="M689.388 564.262H679.164V536.868H689.388V564.262Z" fill="#EBEDEE"/>
<path d="M627.257 831.701L689.527 829.361C693.24 829.221 696.137 826.097 695.998 822.385C695.89 819.524 693.986 817.046 691.25 816.205L660.037 806.616L626.393 808.703L627.257 831.701Z" fill="#9386AC"/>
<path d="M690.838 831.043L627.82 833.88L627.617 829.363L695.151 826.323C695.263 828.818 693.333 830.931 690.838 831.043Z" fill="#A53112"/>
<path d="M659.686 815.753L666.644 807.611" stroke="#A53112" stroke-width="1.49615" stroke-miterlimit="10" stroke-linecap="round"/>
<path d="M665.143 817.771L672.101 809.629" stroke="#A53112" stroke-width="1.49615" stroke-miterlimit="10" stroke-linecap="round"/>
<path d="M670.408 820.563L678.238 811.333" stroke="#A53112" stroke-width="1.49615" stroke-miterlimit="10" stroke-linecap="round"/>
<mask id="mask0_973_10736" style="mask-type:luminance" maskUnits="userSpaceOnUse" x="559" y="607" width="106" height="203">
<path d="M623.94 809.62C627.556 748.839 626.58 692.645 621.844 681.264C616.989 674.198 587.828 656.814 559.109 643.929L575.249 607.928C595.405 616.961 643.626 640.268 656.032 661.548C661.269 670.53 666.293 688.069 663.839 750.045C662.554 782.507 660.969 807.937 660.969 807.937L623.94 809.62Z" fill="white"/>
</mask>
<g mask="url(#mask0_973_10736)">
<path d="M623.936 809.621C627.552 748.84 626.576 692.646 621.841 681.265C616.985 674.199 587.824 656.815 559.105 643.93L575.245 607.929C595.401 616.962 643.622 640.269 656.028 661.549C661.266 670.531 666.289 688.069 663.835 750.046C662.55 782.508 660.966 807.938 660.966 807.938L623.936 809.621Z" fill="#A53112"/>
<path d="M553.741 623.661C553.741 623.661 627.053 650.093 635.531 671.038C644.009 691.985 641.017 809.183 641.017 809.183L616.58 810.181L535.289 619.671L553.741 623.661Z" fill="#A53112"/>
</g>
<path d="M567.418 451.363L598.782 531.529C604.3 543.47 616.308 551.066 629.461 550.936L683.404 550.401" stroke="#162134" stroke-width="32.9153" stroke-miterlimit="10"/>
<path d="M538.568 427.842H531.118C524.284 427.842 518.691 422.249 518.691 415.415V380.396C518.691 373.561 524.284 367.969 531.118 367.969H538.568C545.402 367.969 550.995 373.561 550.995 380.396V415.415C550.995 422.249 545.402 427.842 538.568 427.842Z" fill="#F79073"/>
<path d="M601.703 336.835C601.648 337.622 601.576 338.408 601.488 339.193C601.046 342.971 600.222 346.643 599.042 350.127C594.007 365.044 582.589 376.849 568.21 382.521C561.071 385.345 553.198 386.649 545.023 386.075C540.98 385.791 537.107 386.074 533.427 386.357C525.056 387.001 517.69 387.645 511.644 381.614C508.838 378.818 506.343 375.737 504.237 372.393C503.409 371.076 502.631 369.746 501.921 368.373C497.586 359.996 495.074 339.482 495.783 329.395C497.782 300.947 521.835 279.311 550.052 280.018C550.857 280.043 551.661 280.083 552.464 280.14C570.294 281.392 585.434 291.302 594.09 305.486L594.106 305.502C596.638 309.667 598.611 314.212 599.937 319.003C601.494 324.649 602.136 330.667 601.703 336.835Z" fill="#5B293C"/>
<path d="M531.723 347.168C531.663 348.275 531.408 349.337 530.959 350.31C530.451 351.477 529.672 352.719 528.715 353.587C526.98 355.143 524.66 356.235 522.147 356.1L516.746 355.816L512.602 355.607L513.215 343.309H513.23L513.335 341.035L513.424 339.269L513.515 337.653L513.529 337.234H513.544L523.075 337.727C525.483 337.848 527.623 338.895 529.179 340.495C530.122 341.468 530.839 342.665 531.274 343.966C531.633 344.984 531.783 346.047 531.723 347.168Z" fill="#FABBBB"/>
<path d="M597.33 341.948L596.313 361.832L596.163 364.809C596.074 366.769 595.819 368.714 595.46 370.585C592.049 388.148 577.476 401.629 559.597 403.844C559.059 403.933 558.505 403.978 557.967 404.008C556.052 404.203 554.122 404.217 552.147 404.128C550.232 404.038 548.376 403.798 546.536 403.455C542.946 402.796 539.519 401.674 536.333 400.163L536.302 400.148C522.418 393.58 512.842 379.725 512.335 363.911C512.319 363.432 512.305 362.969 512.319 362.49C512.289 361.936 512.319 361.368 512.349 360.8V360.5L512.409 359.153L512.603 355.608L513.202 343.43L513.217 343.31V343.294L513.337 341.036L513.426 339.27L513.515 337.654L513.546 337.235C513.711 334.422 514.279 331.7 515.102 329.096C515.655 327.27 516.344 325.49 517.107 323.784C517.211 323.5 517.317 323.261 517.436 323.006C518.065 321.6 518.797 320.209 519.591 318.892L519.605 318.862C522.613 313.835 526.667 309.482 531.455 306.114C532.413 305.441 533.4 304.798 534.403 304.2C541.389 300.101 549.589 297.901 558.236 298.35C569.801 298.948 580.169 304.14 587.396 312.07C591.271 316.304 593.814 321.271 595.669 326.763C596.388 328.857 596.852 331.011 597.106 333.211C597.45 336.038 597.495 338.955 597.33 341.948Z" fill="#FABDA3"/>
<path d="M517.374 343.473L516.746 355.816L516.312 364.149L513.035 363.985C512.796 363.969 512.557 363.955 512.333 363.91C506.872 363.253 502.758 358.27 503.026 352.794C503.161 349.951 504.478 347.587 506.483 345.792C508.278 344.191 510.642 343.338 513.215 343.309H513.23C513.53 343.279 513.783 343.279 514.083 343.309L517.374 343.473Z" fill="#FABBBB"/>
<path d="M550.994 403.977C550.994 403.977 543.512 404.475 536.331 400.162L536.301 400.146C522.417 393.578 512.841 379.724 512.333 363.91C506.872 363.252 502.758 358.27 503.026 352.794C503.161 349.951 504.478 347.587 506.483 345.792C508.278 344.191 510.642 343.338 513.215 343.308V343.293L513.335 341.034L513.425 339.268L513.515 337.653L513.53 337.233H513.544C513.71 334.42 514.278 331.697 515.1 329.094C520.756 325.937 526.516 325.339 529.793 332.416C529.793 332.416 529.463 335.618 529.179 340.495C528.955 344.145 528.746 348.724 528.715 353.586C528.626 363.581 529.224 374.757 531.798 381.535C537.274 396.002 550.994 403.977 550.994 403.977Z" fill="#F79073"/>
<path d="M598.976 313.127H531.529C527.101 313.127 523.477 309.504 523.477 305.074C523.477 300.646 527.101 297.023 531.529 297.023H598.976C603.405 297.023 607.028 300.646 607.028 305.074C607.028 309.504 603.405 313.127 598.976 313.127Z" fill="#5B293C"/>
<path d="M613.659 319.654C614.317 323.282 613.05 326.72 610.72 329.051C608.805 330.966 606.142 332.163 603.239 332.163H541.74C532.92 332.163 525.769 339.313 525.769 348.133V358.076C525.769 361.376 523.069 364.075 519.769 364.075H518.348C515.034 364.075 512.348 361.389 512.348 358.076V328.123C512.348 327.883 512.363 327.66 512.393 327.434C511.256 325.758 510.598 323.724 510.598 321.57C510.598 318.652 511.795 316.005 513.71 314.074C515.624 312.159 518.288 310.963 521.191 310.963H602.803C608.009 310.963 612.729 314.532 613.659 319.654Z" fill="#5B293C"/>
<path d="M562.216 360.339L555.982 348.121H560.471L566.954 359.841L562.216 360.339Z" fill="#FDDED3"/>
<path d="M591.39 360.339L585.156 348.121H589.644L596.128 359.841L591.39 360.339Z" fill="#FDDED3"/>
<path d="M592.959 361.026H578.882C577.313 361.026 576.029 359.743 576.029 358.175V350.412C576.029 348.844 577.313 347.56 578.882 347.56H592.959C594.527 347.56 595.81 348.844 595.81 350.412V358.175C595.81 359.743 594.527 361.026 592.959 361.026Z" stroke="#A53112" stroke-width="1.34966" stroke-miterlimit="10"/>
<path d="M565.451 361.026H549.996C548.366 361.026 547.031 359.692 547.031 358.062V350.525C547.031 348.895 548.366 347.56 549.996 347.56H565.451C567.082 347.56 568.416 348.895 568.416 350.525V358.062C568.416 359.692 567.082 361.026 565.451 361.026Z" stroke="#A53112" stroke-width="1.40331" stroke-miterlimit="10"/>
<path d="M568.697 354.356L576.676 354.605" stroke="#A53112" stroke-width="1.40331" stroke-miterlimit="10"/>
<path d="M587.561 467.504V618.675L477.672 630.689L472.268 467.504C472.268 443.206 489.863 422.994 513.007 418.925C515.791 418.446 518.649 418.191 521.58 418.191H538.248C565.478 418.191 587.561 440.275 587.561 467.504Z" fill="#A53112"/>
<path d="M578.837 631.945C578.837 638.752 576.413 644.991 572.388 649.854C567.242 656.092 559.432 660.072 550.695 660.072H503.401C501.995 660.072 500.618 659.968 499.271 659.758C495.8 659.264 492.539 658.112 489.606 656.452C489.083 656.167 488.574 655.853 488.08 655.524C480.376 650.512 475.273 641.819 475.273 631.945L476.141 616.938L578.014 616.056L578.837 631.945Z" fill="#A53112"/>
<path d="M557.727 592.46H519.715V415.199H557.727V592.46Z" fill="#EBEDEE"/>
<path d="M539.994 438.467L528.908 422.682L539.122 416.572L551.08 422.682L539.994 438.467Z" fill="#A53112"/>
<path d="M543.914 596.761L531.533 580.053L536.504 431.036L544.19 431.774L555.428 579.443L543.914 596.761Z" fill="#A53112"/>
<path d="M558.386 429.801L540.556 417.594L519.717 429.801L518.242 414.777H558.386V429.801Z" fill="white"/>
<path d="M549.463 820.981L607.734 843.063C611.209 844.379 615.093 842.63 616.409 839.155C617.423 836.479 616.634 833.454 614.442 831.616L589.422 810.634L557.619 799.46L549.463 820.981Z" fill="#9386AC"/>
<path d="M608.288 845.123L549.135 823.208L550.706 818.969L614.098 842.455C613.231 844.797 610.63 845.991 608.288 845.123Z" fill="#A53112"/>
<path d="M597.465 747.987C596.642 780.169 593.799 809.598 593.681 810.825L572.794 808.789L554.421 807.01C559.747 752.146 559.508 696.953 553.957 685.178C547.524 679.119 522.524 668.077 499.273 659.758C495.997 658.592 492.75 657.484 489.608 656.452C489.054 656.258 488.501 656.078 487.947 655.898L488.081 655.524C488.081 655.524 507.358 621.667 547.964 633.317C556.522 635.772 563.547 643.899 572.39 649.854C576.968 652.921 580.873 656.078 583.716 659.205C591.825 668.122 599.096 685.043 597.465 747.987Z" fill="#CE4824"/>
<path d="M583.537 816.915L593.263 812.426" stroke="#A53112" stroke-width="1.49615" stroke-miterlimit="10" stroke-linecap="round"/>
<path d="M587.65 821.028L597.376 816.541" stroke="#A53112" stroke-width="1.49615" stroke-miterlimit="10" stroke-linecap="round"/>
<path d="M591.266 825.768L602.237 820.656" stroke="#A53112" stroke-width="1.49615" stroke-miterlimit="10" stroke-linecap="round"/>
<path d="M514.833 486.521L472.268 469.075V467.505C472.268 443.206 489.863 422.994 513.007 418.925C513.113 419.014 513.232 419.104 513.337 419.194L514.833 486.521Z" fill="#CE4824"/>
<path d="M572.793 808.791L554.42 807.011C559.746 752.148 559.507 696.954 553.956 685.18C547.523 679.12 522.522 668.079 499.271 659.76C495.8 659.266 492.539 658.114 489.606 656.454C489.053 656.259 488.499 656.079 487.946 655.899L488.08 655.526C480.376 650.514 475.273 641.821 475.273 631.946L476.141 616.94L492.39 619.17C492.001 620.336 489.802 631.797 493.811 638.679C494.933 640.64 496.563 642.225 498.882 643.108C505.241 645.532 529.435 651.456 548.69 660.074C561.138 665.655 571.536 672.373 573.69 680.018C578.747 697.972 573.616 794.114 572.793 808.791Z" fill="#A53112"/>
<path d="M787.386 574.413H689.437C683.03 574.413 678.796 567.752 681.515 561.951L715.676 489.072C718.656 482.718 725.04 478.659 732.057 478.659H822.235C826.907 478.659 829.994 483.516 828.011 487.747L787.386 574.413Z" fill="#B0A5C7"/>
<path d="M689.798 574.664H619.957C617.135 574.664 614.828 572.356 614.828 569.536C614.828 566.714 617.135 564.407 619.957 564.407H689.798C692.619 564.407 694.926 566.714 694.926 569.536C694.926 572.356 692.619 574.664 689.798 574.664Z" fill="#B0A5C7"/>
<path d="M664.703 570.798H654.729V567.806H664.703V570.798Z" fill="#A53112"/>
<path d="M651.733 570.798H644.502V567.806H651.733V570.798Z" fill="#A53112"/>
<path d="M785.91 574.413H687.733C684.207 574.413 681.879 570.749 683.375 567.558L720.165 489.072C723.143 482.718 729.528 478.659 736.546 478.659H826.723C831.395 478.659 834.481 483.516 832.499 487.747L794.405 569.014C792.86 572.309 789.549 574.413 785.91 574.413Z" fill="#FF9C31"/>
<path d="M764.46 532.13C762.133 537.576 757.782 540.937 754.743 539.638C751.704 538.34 751.127 532.872 753.454 527.426C755.781 521.982 760.132 518.62 763.171 519.919C766.21 521.218 766.787 526.686 764.46 532.13Z" fill="white"/>
<path d="M611.329 551.797L635.705 547.901C637.485 547.616 638.709 545.926 638.424 544.147C638.14 542.367 636.451 541.142 634.671 541.427L610.294 545.323C608.514 545.608 607.289 547.298 607.574 549.077C607.858 550.858 609.548 552.082 611.329 551.797Z" fill="#F79073"/>
<path d="M619.088 558.387L638.661 555.258C640.442 554.973 641.665 553.284 641.381 551.504C641.096 549.724 639.407 548.5 637.627 548.785L618.053 551.913C616.273 552.198 615.05 553.887 615.334 555.667C615.619 557.447 617.308 558.672 619.088 558.387Z" fill="#F79073"/>
<path d="M614.565 566.933L637.731 563.231C639.511 562.946 640.736 561.257 640.451 559.477C640.167 557.697 638.477 556.472 636.697 556.757L613.53 560.461C611.75 560.745 610.527 562.434 610.81 564.214C611.096 565.995 612.785 567.218 614.565 566.933Z" fill="#F79073"/>
<path d="M621.85 545.493C621.589 545.525 618.598 545.484 615.359 545.43C609.765 545.336 604.227 546.577 599.206 549.047L589.592 553.776C589.592 553.776 595.098 570.116 595.857 570.254C614.394 573.604 620.753 565.189 620.753 565.189L621.85 545.493Z" fill="#F79073"/>
<path d="M607.494 572.172H599.266V545.428H607.494V572.172Z" fill="#EBEDEE"/>
<path d="M545.347 575.074C525.946 575.074 508.209 563.75 500.058 546.112L499.656 545.242L474.262 467.698L505.543 457.455L530.289 533.022C533.225 538.66 539.129 542.228 545.515 542.158L599.457 541.624L599.783 574.537L545.84 575.072C545.677 575.073 545.51 575.074 545.347 575.074Z" fill="#CE4824"/>
<path d="M554.859 617.15H527.43V607.704H554.859V617.15Z" fill="#9386AC"/>
<path d="M496.884 858.558H472.945V599.225H496.884V858.558Z" fill="#FF9C31"/>
<path d="M803.099 599.221V858.559H779.162V599.221H803.099Z" fill="#FF9C31"/>
<path d="M919.792 599.221V858.559H895.855V599.221H919.792Z" fill="#FF9C31"/>
<path d="M779.162 599.221H803.099V684.762L779.162 696.642V599.221Z" fill="#3A345B"/>
<path d="M919.792 599.221V626.851L895.855 638.73V599.221H919.792Z" fill="#3A345B"/>
<path d="M497.083 598.71V626.697L472.838 638.73V598.71H497.083Z" fill="#3A345B"/>
<path d="M333.766 606.962H871.106V585.173C871.106 579.349 866.385 574.628 860.562 574.628H344.31C338.486 574.628 333.766 579.349 333.766 585.173V606.962Z" fill="#3A345B"/>
<path d="M529.746 575.643H412.393V550.674H529.746V575.643Z" fill="#C4C3C8"/>
<path d="M530.054 575.927H475.783V550.391H530.054V575.927Z" fill="#EBEDEE"/>
<path d="M412.494 555.271H529.951" stroke="#9386AC" stroke-width="1.84033" stroke-miterlimit="10"/>
<path d="M412.494 560.294H529.951" stroke="#9386AC" stroke-width="1.84033" stroke-miterlimit="10"/>
<path d="M412.494 565.314H529.951" stroke="#9386AC" stroke-width="1.84033" stroke-miterlimit="10"/>
<path d="M412.494 570.338H529.951" stroke="#9386AC" stroke-width="1.84033" stroke-miterlimit="10"/>
<path d="M382.788 858.521H218.02V647.429H382.788V858.521Z" fill="#5E2B48"/>
<path d="M454.422 858.521H279.25V647.429H454.422V858.521Z" fill="#5E2B48"/>
<path d="M444.063 718.747H290.459V662.89H444.063V718.747Z" fill="#CE4824"/>
<path d="M444.063 784.29H290.459V728.434H444.063V784.29Z" fill="#CE4824"/>
<path d="M444.063 849.833H290.459V793.977H444.063V849.833Z" fill="#CE4824"/>
<path d="M394.146 693.811H355.745C354.099 693.811 352.752 692.463 352.752 690.818C352.752 689.172 354.099 687.826 355.745 687.826H394.146C395.792 687.826 397.138 689.172 397.138 690.818C397.138 692.463 395.792 693.811 394.146 693.811Z" fill="white"/>
<path d="M395.643 758.893H357.242C355.596 758.893 354.25 757.546 354.25 755.901C354.25 754.255 355.596 752.908 357.242 752.908H395.643C397.289 752.908 398.635 754.255 398.635 755.901C398.635 757.546 397.289 758.893 395.643 758.893Z" fill="white"/>
<path d="M395.643 823.975H357.242C355.596 823.975 354.25 822.629 354.25 820.983C354.25 819.336 355.596 817.99 357.242 817.99H395.643C397.289 817.99 398.635 819.336 398.635 820.983C398.635 822.629 397.289 823.975 395.643 823.975Z" fill="white"/>
<path d="M593.386 540.067V576.782H562.715V540.067C562.715 538.451 564.031 537.135 565.647 537.135H590.453C592.069 537.135 593.386 538.451 593.386 540.067Z" fill="#F8A12B"/>
<path d="M563.091 570.5C562.69 570.269 553.275 564.755 552.435 555.096C552.115 551.412 553.509 549.131 554.734 547.865C558.105 544.384 563.704 544.585 564.332 544.618L564.087 549.101C562.949 549.048 559.602 549.279 557.95 550.996C557.107 551.873 556.766 553.086 556.906 554.707C557.546 562.057 565.249 566.563 565.326 566.607L563.091 570.5Z" fill="#F14E30"/>
<path d="M585.81 560.513H577.02C573.973 560.513 571.502 558.043 571.502 554.996C571.502 551.949 573.973 549.479 577.02 549.479H585.81C588.857 549.479 591.326 551.949 591.326 554.996C591.326 558.043 588.857 560.513 585.81 560.513Z" fill="#DAD4D2"/>
<path d="M579.052 576.782H562.715V540.067C562.715 538.451 564.031 537.135 565.647 537.135H566.635C566.679 539.05 567.203 553.697 571.318 564.245C574.893 573.43 578.08 576.139 579.052 576.782Z" fill="#F14E30"/>
<path d="M819.303 555.381H901.592" stroke="#9386AC" stroke-width="1.49615" stroke-miterlimit="10"/>
<path d="M819.303 560.119H901.592" stroke="#9386AC" stroke-width="1.49615" stroke-miterlimit="10"/>
<path d="M819.303 563.815H901.592" stroke="#9386AC" stroke-width="1.49615" stroke-miterlimit="10"/>
<path d="M819.303 568.555H901.592" stroke="#9386AC" stroke-width="1.49615" stroke-miterlimit="10"/>
<path d="M464.217 551.099L483.916 508.708L503.366 550.6L464.217 551.099Z" fill="white"/>
<path d="M483.914 549.852H448.506V508.957H483.914V549.852Z" fill="white"/>
<path d="M430.305 551.099L448.259 509.207L467.708 551.099H430.305Z" fill="#3A345B"/>
<path d="M480.675 515.938H462.971V514.193H480.675V515.938Z" fill="#9386AC"/>
<path d="M482.173 519.432H464.469V517.686H482.173V519.432Z" fill="#9386AC"/>
<path d="M467.024 525.011L475.244 544.39L493.291 543.95L484.521 525.154L467.024 525.011ZM474.275 545.936L464.783 523.558L485.444 523.64L495.637 545.333L474.275 545.936Z" fill="#9386AC"/>
<path d="M468.145 528.22H487.059" stroke="#9386AC" stroke-width="1.5199" stroke-miterlimit="10"/>
<path d="M469.785 532.303H488.699" stroke="#9386AC" stroke-width="1.5199" stroke-miterlimit="10"/>
<path d="M471.137 536.387H490.051" stroke="#9386AC" stroke-width="1.5199" stroke-miterlimit="10"/>
<path d="M473.355 540.471H492.27" stroke="#9386AC" stroke-width="1.5199" stroke-miterlimit="10"/>
<path d="M481.424 524.76L490.214 544.304" stroke="#9386AC" stroke-width="1.5199" stroke-miterlimit="10"/>
<path d="M476.188 524.855L484.978 544.398" stroke="#9386AC" stroke-width="1.5199" stroke-miterlimit="10"/>
<path d="M471.041 524.482L479.741 544.771" stroke="#9386AC" stroke-width="1.5199" stroke-miterlimit="10"/>
<path d="M902.874 546.93L897.963 546.06L909.957 478.29L914.868 479.16L902.874 546.93Z" fill="#424FA8"/>
<path d="M913.037 498.08L905.426 496.733L909.032 476.353L916.645 477.7L913.037 498.08Z" fill="#424FA8"/>
<path d="M894.689 555.581L889.719 555.165L895.47 486.583L898.477 482.196L900.441 486.999L894.689 555.581Z" fill="#5E2B48"/>
<path d="M887.778 559.084L882.882 560.037L869.73 492.482L871.428 487.442L874.626 491.53L887.778 559.084Z" fill="#CE4824"/>
<path d="M898.784 574.8H877.469L870.48 518.372H905.773L898.784 574.8Z" fill="#F14E30"/>
<path d="M906.823 574.8H885.508L882.363 518.372H913.813L906.823 574.8Z" fill="#F8A12B"/>
<path d="M383.095 619.714V647.593H296.551C290.507 647.593 285.344 643.732 283.414 638.34C282.896 636.88 282.605 635.3 282.605 633.647C282.605 629.811 284.162 626.325 286.683 623.792C289.216 621.27 292.703 619.714 296.551 619.714H383.095Z" fill="#424FA8"/>
<path d="M350.484 638.34V647.593H296.548C290.504 647.593 285.341 643.732 283.41 638.34H350.484Z" fill="#31427F"/>
<path d="M415.805 619.709V647.597L329.262 647.596C321.565 647.596 315.318 641.349 315.318 633.653C315.318 629.811 316.88 626.322 319.398 623.789C321.931 621.271 325.421 619.709 329.262 619.709H415.805Z" fill="#A53112"/>
<path d="M415.804 624.49V642.369L333.022 642.368C328.082 642.368 324.082 638.369 324.082 633.429C324.082 630.96 325.086 628.728 326.696 627.103C328.321 625.493 330.552 624.49 333.022 624.49H415.804Z" fill="#EBEDEE"/>
<path d="M384.976 564.295V592.182L298.434 592.181C290.737 592.181 284.49 585.935 284.49 578.238C284.49 574.397 286.053 570.907 288.57 568.374C291.103 565.856 294.593 564.294 298.434 564.294L384.976 564.295Z" fill="#F8A12B"/>
<path d="M352.095 573.604V564.35H298.158C292.114 564.35 286.951 568.211 285.021 573.604H352.095Z" fill="#FBD41F"/>
<path d="M415.805 564.295V592.182H329.262C321.565 592.182 315.318 585.935 315.318 578.238C315.318 574.397 316.88 570.907 319.398 568.374C321.931 565.856 325.421 564.294 329.262 564.294L415.805 564.295Z" fill="#CE4824"/>
<path d="M415.804 569.076V586.955H333.022C328.082 586.955 324.082 582.955 324.082 578.015C324.082 575.545 325.086 573.315 326.696 571.689C328.321 570.08 330.552 569.076 333.022 569.076H415.804Z" fill="#EBEDEE"/>
<path d="M390.004 592.343V620.234H303.461C295.764 620.234 289.527 613.986 289.527 606.289C289.527 603.924 290.118 601.693 291.155 599.738C291.808 598.52 292.64 597.397 293.605 596.421C296.138 593.899 299.624 592.343 303.461 592.343H390.004Z" fill="#FEBF60"/>
<path d="M376.615 592.342V599.737H291.156C291.808 598.519 292.641 597.397 293.606 596.42C296.139 593.898 299.625 592.342 303.462 592.342H376.615Z" fill="#63A130"/>
<path d="M376.615 620.245V612.85H291.156C291.808 614.069 292.641 615.19 293.606 616.167C296.139 618.689 299.625 620.245 303.462 620.245H376.615Z" fill="#63A130"/>
<path d="M432.791 592.342V620.229H346.248C338.551 620.229 332.305 613.982 332.305 606.285C332.305 602.444 333.866 598.954 336.385 596.421C338.918 593.904 342.408 592.341 346.248 592.341L432.791 592.342Z" fill="#3A345B"/>
<path d="M432.788 597.124V615.003H350.006C345.066 615.003 341.066 611.003 341.066 606.063C341.066 603.593 342.07 601.363 343.681 599.737C345.305 598.128 347.537 597.124 350.006 597.124H432.788Z" fill="#EBEDEE"/>
<path d="M299.84 573.974C288.262 589.741 265.034 592.358 265.034 592.358C265.034 592.358 260.579 569.412 272.157 553.645C283.735 537.878 306.963 535.262 306.963 535.262C306.963 535.262 311.418 558.208 299.84 573.974Z" fill="#3A345B"/>
<path d="M251.222 564.547C261.836 575.007 261.257 592.805 261.257 592.805C261.257 592.805 243.469 593.643 232.855 583.182C222.242 572.721 222.82 554.923 222.82 554.923C222.82 554.923 240.609 554.086 251.222 564.547Z" fill="#FF9C31"/>
<path d="M277.525 556.633C279.681 576.075 264.361 593.729 264.361 593.729C264.361 593.729 245.544 579.861 243.388 560.419C241.232 540.977 256.552 523.322 256.552 523.322C256.552 523.322 275.368 537.19 277.525 556.633Z" fill="#3A345B"/>
<path d="M276.089 647.445H235.798L222.588 588.661H289.299L276.089 647.445Z" fill="#5E2B48"/>
<path d="M291.281 647.445H250.992L245.047 588.661H304.492L291.281 647.445Z" fill="#9D4534"/>
<path d="M452.459 606.962H959.876V585.173C959.876 579.349 955.156 574.628 949.332 574.628H463.003C457.18 574.628 452.459 579.349 452.459 585.173V606.962Z" fill="#5273C2"/>
</g>
</g>
<defs>
<clipPath id="clip0_973_10736">
<rect width="1276" height="859" fill="white"/>
</clipPath>
<clipPath id="clip1_973_10736">
<rect width="756.876" height="578.558" fill="white" transform="translate(203 280)"/>
</clipPath>
</defs>
</svg>
